%TF.GenerationSoftware,KiCad,Pcbnew,(5.1.9)-1*%
%TF.CreationDate,2021-04-17T12:39:32+05:30*%
%TF.ProjectId,dcSplitter,64635370-6c69-4747-9465-722e6b696361,rev?*%
%TF.SameCoordinates,Original*%
%TF.FileFunction,Legend,Top*%
%TF.FilePolarity,Positive*%
%FSLAX46Y46*%
G04 Gerber Fmt 4.6, Leading zero omitted, Abs format (unit mm)*
G04 Created by KiCad (PCBNEW (5.1.9)-1) date 2021-04-17 12:39:32*
%MOMM*%
%LPD*%
G01*
G04 APERTURE LIST*
%ADD10C,0.150000*%
%ADD11C,0.120000*%
G04 APERTURE END LIST*
D10*
X151300000Y-30271428D02*
X151014285Y-30271428D01*
X151014285Y-29671428D01*
X151500000Y-30271428D02*
X151500000Y-29871428D01*
X151500000Y-29671428D02*
X151471428Y-29700000D01*
X151500000Y-29728571D01*
X151528571Y-29700000D01*
X151500000Y-29671428D01*
X151500000Y-29728571D01*
X152042857Y-30242857D02*
X151985714Y-30271428D01*
X151871428Y-30271428D01*
X151814285Y-30242857D01*
X151785714Y-30214285D01*
X151757142Y-30157142D01*
X151757142Y-29985714D01*
X151785714Y-29928571D01*
X151814285Y-29900000D01*
X151871428Y-29871428D01*
X151985714Y-29871428D01*
X152042857Y-29900000D01*
X152528571Y-30242857D02*
X152471428Y-30271428D01*
X152357142Y-30271428D01*
X152300000Y-30242857D01*
X152271428Y-30185714D01*
X152271428Y-29957142D01*
X152300000Y-29900000D01*
X152357142Y-29871428D01*
X152471428Y-29871428D01*
X152528571Y-29900000D01*
X152557142Y-29957142D01*
X152557142Y-30014285D01*
X152271428Y-30071428D01*
X152814285Y-29871428D02*
X152814285Y-30271428D01*
X152814285Y-29928571D02*
X152842857Y-29900000D01*
X152900000Y-29871428D01*
X152985714Y-29871428D01*
X153042857Y-29900000D01*
X153071428Y-29957142D01*
X153071428Y-30271428D01*
X153328571Y-30242857D02*
X153385714Y-30271428D01*
X153500000Y-30271428D01*
X153557142Y-30242857D01*
X153585714Y-30185714D01*
X153585714Y-30157142D01*
X153557142Y-30100000D01*
X153500000Y-30071428D01*
X153414285Y-30071428D01*
X153357142Y-30042857D01*
X153328571Y-29985714D01*
X153328571Y-29957142D01*
X153357142Y-29900000D01*
X153414285Y-29871428D01*
X153500000Y-29871428D01*
X153557142Y-29900000D01*
X154071428Y-30242857D02*
X154014285Y-30271428D01*
X153900000Y-30271428D01*
X153842857Y-30242857D01*
X153814285Y-30185714D01*
X153814285Y-29957142D01*
X153842857Y-29900000D01*
X153900000Y-29871428D01*
X154014285Y-29871428D01*
X154071428Y-29900000D01*
X154100000Y-29957142D01*
X154100000Y-30014285D01*
X153814285Y-30071428D01*
X155157142Y-30214285D02*
X155128571Y-30242857D01*
X155042857Y-30271428D01*
X154985714Y-30271428D01*
X154900000Y-30242857D01*
X154842857Y-30185714D01*
X154814285Y-30128571D01*
X154785714Y-30014285D01*
X154785714Y-29928571D01*
X154814285Y-29814285D01*
X154842857Y-29757142D01*
X154900000Y-29700000D01*
X154985714Y-29671428D01*
X155042857Y-29671428D01*
X155128571Y-29700000D01*
X155157142Y-29728571D01*
X155757142Y-30214285D02*
X155728571Y-30242857D01*
X155642857Y-30271428D01*
X155585714Y-30271428D01*
X155500000Y-30242857D01*
X155442857Y-30185714D01*
X155414285Y-30128571D01*
X155385714Y-30014285D01*
X155385714Y-29928571D01*
X155414285Y-29814285D01*
X155442857Y-29757142D01*
X155500000Y-29700000D01*
X155585714Y-29671428D01*
X155642857Y-29671428D01*
X155728571Y-29700000D01*
X155757142Y-29728571D01*
X156671428Y-29957142D02*
X156757142Y-29985714D01*
X156785714Y-30014285D01*
X156814285Y-30071428D01*
X156814285Y-30157142D01*
X156785714Y-30214285D01*
X156757142Y-30242857D01*
X156700000Y-30271428D01*
X156471428Y-30271428D01*
X156471428Y-29671428D01*
X156671428Y-29671428D01*
X156728571Y-29700000D01*
X156757142Y-29728571D01*
X156785714Y-29785714D01*
X156785714Y-29842857D01*
X156757142Y-29900000D01*
X156728571Y-29928571D01*
X156671428Y-29957142D01*
X156471428Y-29957142D01*
X157185714Y-29985714D02*
X157185714Y-30271428D01*
X156985714Y-29671428D02*
X157185714Y-29985714D01*
X157385714Y-29671428D01*
X158300000Y-29871428D02*
X158300000Y-30271428D01*
X158157142Y-29642857D02*
X158014285Y-30071428D01*
X158385714Y-30071428D01*
X158614285Y-30214285D02*
X158642857Y-30242857D01*
X158614285Y-30271428D01*
X158585714Y-30242857D01*
X158614285Y-30214285D01*
X158614285Y-30271428D01*
X159014285Y-29671428D02*
X159071428Y-29671428D01*
X159128571Y-29700000D01*
X159157142Y-29728571D01*
X159185714Y-29785714D01*
X159214285Y-29900000D01*
X159214285Y-30042857D01*
X159185714Y-30157142D01*
X159157142Y-30214285D01*
X159128571Y-30242857D01*
X159071428Y-30271428D01*
X159014285Y-30271428D01*
X158957142Y-30242857D01*
X158928571Y-30214285D01*
X158900000Y-30157142D01*
X158871428Y-30042857D01*
X158871428Y-29900000D01*
X158900000Y-29785714D01*
X158928571Y-29728571D01*
X158957142Y-29700000D01*
X159014285Y-29671428D01*
X109364166Y-29850000D02*
X109364166Y-30416666D01*
X109330833Y-30483333D01*
X109297500Y-30516666D01*
X109230833Y-30550000D01*
X109130833Y-30550000D01*
X109064166Y-30516666D01*
X109364166Y-30283333D02*
X109297500Y-30316666D01*
X109164166Y-30316666D01*
X109097500Y-30283333D01*
X109064166Y-30250000D01*
X109030833Y-30183333D01*
X109030833Y-29983333D01*
X109064166Y-29916666D01*
X109097500Y-29883333D01*
X109164166Y-29850000D01*
X109297500Y-29850000D01*
X109364166Y-29883333D01*
X109697500Y-30316666D02*
X109697500Y-29850000D01*
X109697500Y-29616666D02*
X109664166Y-29650000D01*
X109697500Y-29683333D01*
X109730833Y-29650000D01*
X109697500Y-29616666D01*
X109697500Y-29683333D01*
X109930833Y-29850000D02*
X110197500Y-29850000D01*
X110030833Y-29616666D02*
X110030833Y-30216666D01*
X110064166Y-30283333D01*
X110130833Y-30316666D01*
X110197500Y-30316666D01*
X110430833Y-30316666D02*
X110430833Y-29616666D01*
X110730833Y-30316666D02*
X110730833Y-29950000D01*
X110697500Y-29883333D01*
X110630833Y-29850000D01*
X110530833Y-29850000D01*
X110464166Y-29883333D01*
X110430833Y-29916666D01*
X111364166Y-29850000D02*
X111364166Y-30316666D01*
X111064166Y-29850000D02*
X111064166Y-30216666D01*
X111097500Y-30283333D01*
X111164166Y-30316666D01*
X111264166Y-30316666D01*
X111330833Y-30283333D01*
X111364166Y-30250000D01*
X111697500Y-30316666D02*
X111697500Y-29616666D01*
X111697500Y-29883333D02*
X111764166Y-29850000D01*
X111897500Y-29850000D01*
X111964166Y-29883333D01*
X111997500Y-29916666D01*
X112030833Y-29983333D01*
X112030833Y-30183333D01*
X111997500Y-30250000D01*
X111964166Y-30283333D01*
X111897500Y-30316666D01*
X111764166Y-30316666D01*
X111697500Y-30283333D01*
X112330833Y-30250000D02*
X112364166Y-30283333D01*
X112330833Y-30316666D01*
X112297500Y-30283333D01*
X112330833Y-30250000D01*
X112330833Y-30316666D01*
X112964166Y-30283333D02*
X112897500Y-30316666D01*
X112764166Y-30316666D01*
X112697500Y-30283333D01*
X112664166Y-30250000D01*
X112630833Y-30183333D01*
X112630833Y-29983333D01*
X112664166Y-29916666D01*
X112697500Y-29883333D01*
X112764166Y-29850000D01*
X112897500Y-29850000D01*
X112964166Y-29883333D01*
X113364166Y-30316666D02*
X113297500Y-30283333D01*
X113264166Y-30250000D01*
X113230833Y-30183333D01*
X113230833Y-29983333D01*
X113264166Y-29916666D01*
X113297500Y-29883333D01*
X113364166Y-29850000D01*
X113464166Y-29850000D01*
X113530833Y-29883333D01*
X113564166Y-29916666D01*
X113597500Y-29983333D01*
X113597500Y-30183333D01*
X113564166Y-30250000D01*
X113530833Y-30283333D01*
X113464166Y-30316666D01*
X113364166Y-30316666D01*
X113897500Y-30316666D02*
X113897500Y-29850000D01*
X113897500Y-29916666D02*
X113930833Y-29883333D01*
X113997500Y-29850000D01*
X114097500Y-29850000D01*
X114164166Y-29883333D01*
X114197500Y-29950000D01*
X114197500Y-30316666D01*
X114197500Y-29950000D02*
X114230833Y-29883333D01*
X114297500Y-29850000D01*
X114397500Y-29850000D01*
X114464166Y-29883333D01*
X114497500Y-29950000D01*
X114497500Y-30316666D01*
X115330833Y-29583333D02*
X114730833Y-30483333D01*
X115564166Y-29850000D02*
X115564166Y-30316666D01*
X115564166Y-29916666D02*
X115597500Y-29883333D01*
X115664166Y-29850000D01*
X115764166Y-29850000D01*
X115830833Y-29883333D01*
X115864166Y-29950000D01*
X115864166Y-30316666D01*
X116130833Y-29850000D02*
X116297500Y-30316666D01*
X116464166Y-29850000D01*
X116697500Y-30283333D02*
X116764166Y-30316666D01*
X116897500Y-30316666D01*
X116964166Y-30283333D01*
X116997500Y-30216666D01*
X116997500Y-30183333D01*
X116964166Y-30116666D01*
X116897500Y-30083333D01*
X116797500Y-30083333D01*
X116730833Y-30050000D01*
X116697500Y-29983333D01*
X116697500Y-29950000D01*
X116730833Y-29883333D01*
X116797500Y-29850000D01*
X116897500Y-29850000D01*
X116964166Y-29883333D01*
X117297500Y-30316666D02*
X117297500Y-29616666D01*
X117597500Y-30316666D02*
X117597500Y-29950000D01*
X117564166Y-29883333D01*
X117497500Y-29850000D01*
X117397500Y-29850000D01*
X117330833Y-29883333D01*
X117297500Y-29916666D01*
X117930833Y-30316666D02*
X117930833Y-29850000D01*
X117930833Y-29616666D02*
X117897500Y-29650000D01*
X117930833Y-29683333D01*
X117964166Y-29650000D01*
X117930833Y-29616666D01*
X117930833Y-29683333D01*
X118264166Y-29850000D02*
X118264166Y-30316666D01*
X118264166Y-29916666D02*
X118297500Y-29883333D01*
X118364166Y-29850000D01*
X118464166Y-29850000D01*
X118530833Y-29883333D01*
X118564166Y-29950000D01*
X118564166Y-30316666D01*
X119197500Y-30316666D02*
X119197500Y-29616666D01*
X119197500Y-30283333D02*
X119130833Y-30316666D01*
X118997500Y-30316666D01*
X118930833Y-30283333D01*
X118897500Y-30250000D01*
X118864166Y-30183333D01*
X118864166Y-29983333D01*
X118897500Y-29916666D01*
X118930833Y-29883333D01*
X118997500Y-29850000D01*
X119130833Y-29850000D01*
X119197500Y-29883333D01*
X119797500Y-30283333D02*
X119730833Y-30316666D01*
X119597500Y-30316666D01*
X119530833Y-30283333D01*
X119497500Y-30216666D01*
X119497500Y-29950000D01*
X119530833Y-29883333D01*
X119597500Y-29850000D01*
X119730833Y-29850000D01*
X119797500Y-29883333D01*
X119830833Y-29950000D01*
X119830833Y-30016666D01*
X119497500Y-30083333D01*
X109464166Y-29016666D02*
X109464166Y-28316666D01*
X109464166Y-28983333D02*
X109397500Y-29016666D01*
X109264166Y-29016666D01*
X109197500Y-28983333D01*
X109164166Y-28950000D01*
X109130833Y-28883333D01*
X109130833Y-28683333D01*
X109164166Y-28616666D01*
X109197500Y-28583333D01*
X109264166Y-28550000D01*
X109397500Y-28550000D01*
X109464166Y-28583333D01*
X110097500Y-28983333D02*
X110030833Y-29016666D01*
X109897500Y-29016666D01*
X109830833Y-28983333D01*
X109797500Y-28950000D01*
X109764166Y-28883333D01*
X109764166Y-28683333D01*
X109797500Y-28616666D01*
X109830833Y-28583333D01*
X109897500Y-28550000D01*
X110030833Y-28550000D01*
X110097500Y-28583333D01*
X110364166Y-28983333D02*
X110464166Y-29016666D01*
X110630833Y-29016666D01*
X110697500Y-28983333D01*
X110730833Y-28950000D01*
X110764166Y-28883333D01*
X110764166Y-28816666D01*
X110730833Y-28750000D01*
X110697500Y-28716666D01*
X110630833Y-28683333D01*
X110497500Y-28650000D01*
X110430833Y-28616666D01*
X110397500Y-28583333D01*
X110364166Y-28516666D01*
X110364166Y-28450000D01*
X110397500Y-28383333D01*
X110430833Y-28350000D01*
X110497500Y-28316666D01*
X110664166Y-28316666D01*
X110764166Y-28350000D01*
X111064166Y-28550000D02*
X111064166Y-29250000D01*
X111064166Y-28583333D02*
X111130833Y-28550000D01*
X111264166Y-28550000D01*
X111330833Y-28583333D01*
X111364166Y-28616666D01*
X111397500Y-28683333D01*
X111397500Y-28883333D01*
X111364166Y-28950000D01*
X111330833Y-28983333D01*
X111264166Y-29016666D01*
X111130833Y-29016666D01*
X111064166Y-28983333D01*
X111797500Y-29016666D02*
X111730833Y-28983333D01*
X111697500Y-28916666D01*
X111697500Y-28316666D01*
X112064166Y-29016666D02*
X112064166Y-28550000D01*
X112064166Y-28316666D02*
X112030833Y-28350000D01*
X112064166Y-28383333D01*
X112097500Y-28350000D01*
X112064166Y-28316666D01*
X112064166Y-28383333D01*
X112297500Y-28550000D02*
X112564166Y-28550000D01*
X112397500Y-28316666D02*
X112397500Y-28916666D01*
X112430833Y-28983333D01*
X112497500Y-29016666D01*
X112564166Y-29016666D01*
X112697500Y-28550000D02*
X112964166Y-28550000D01*
X112797500Y-28316666D02*
X112797500Y-28916666D01*
X112830833Y-28983333D01*
X112897500Y-29016666D01*
X112964166Y-29016666D01*
X113464166Y-28983333D02*
X113397500Y-29016666D01*
X113264166Y-29016666D01*
X113197500Y-28983333D01*
X113164166Y-28916666D01*
X113164166Y-28650000D01*
X113197500Y-28583333D01*
X113264166Y-28550000D01*
X113397500Y-28550000D01*
X113464166Y-28583333D01*
X113497500Y-28650000D01*
X113497500Y-28716666D01*
X113164166Y-28783333D01*
X113797500Y-29016666D02*
X113797500Y-28550000D01*
X113797500Y-28683333D02*
X113830833Y-28616666D01*
X113864166Y-28583333D01*
X113930833Y-28550000D01*
X113997500Y-28550000D01*
X114697500Y-28550000D02*
X114864166Y-29016666D01*
X115030833Y-28550000D01*
X115430833Y-28316666D02*
X115497500Y-28316666D01*
X115564166Y-28350000D01*
X115597500Y-28383333D01*
X115630833Y-28450000D01*
X115664166Y-28583333D01*
X115664166Y-28750000D01*
X115630833Y-28883333D01*
X115597500Y-28950000D01*
X115564166Y-28983333D01*
X115497500Y-29016666D01*
X115430833Y-29016666D01*
X115364166Y-28983333D01*
X115330833Y-28950000D01*
X115297500Y-28883333D01*
X115264166Y-28750000D01*
X115264166Y-28583333D01*
X115297500Y-28450000D01*
X115330833Y-28383333D01*
X115364166Y-28350000D01*
X115430833Y-28316666D01*
D11*
%TO.C,C1*%
X128738748Y-27235000D02*
X129261252Y-27235000D01*
X128738748Y-25765000D02*
X129261252Y-25765000D01*
%TO.C,C2*%
X144223752Y-27235000D02*
X143701248Y-27235000D01*
X144223752Y-25765000D02*
X143701248Y-25765000D01*
%TO.C,C3*%
X125261252Y-25765000D02*
X124738748Y-25765000D01*
X125261252Y-27235000D02*
X124738748Y-27235000D01*
%TO.C,C4*%
X140223752Y-27235000D02*
X139701248Y-27235000D01*
X140223752Y-25765000D02*
X139701248Y-25765000D01*
%TO.C,D1*%
X135736000Y-17710000D02*
X135580000Y-17710000D01*
X133420000Y-17710000D02*
X133264000Y-17710000D01*
X135578608Y-20942335D02*
G75*
G03*
X135735516Y-17710000I-1078608J1672335D01*
G01*
X133421392Y-20942335D02*
G75*
G02*
X133264484Y-17710000I1078608J1672335D01*
G01*
X135579837Y-20311130D02*
G75*
G03*
X135580000Y-18229039I-1079837J1041130D01*
G01*
X133420163Y-20311130D02*
G75*
G02*
X133420000Y-18229039I1079837J1041130D01*
G01*
%TO.C,J1*%
X127240000Y-39760000D02*
X129140000Y-39760000D01*
X127240000Y-38420000D02*
X127240000Y-39760000D01*
X129940000Y-43610000D02*
X129940000Y-40000000D01*
X139060000Y-28690000D02*
X129940000Y-28690000D01*
X129940000Y-37000000D02*
X129940000Y-34000000D01*
X129940000Y-31000000D02*
X129940000Y-28690000D01*
X139060000Y-31000000D02*
X139060000Y-28690000D01*
X139060000Y-37000000D02*
X139060000Y-34000000D01*
X139060000Y-43610000D02*
X139060000Y-40000000D01*
X139060000Y-43610000D02*
X129940000Y-43610000D01*
X139060000Y-40300000D02*
X129940000Y-40300000D01*
X131500000Y-40300000D02*
X131500000Y-35500000D01*
X137500000Y-40300000D02*
X137500000Y-35500000D01*
X131500000Y-35500000D02*
G75*
G02*
X137500000Y-35500000I3000000J0D01*
G01*
D10*
%TO.C,12*%
X119530000Y-25900000D02*
X119030000Y-26400000D01*
X119530000Y-25100000D02*
X119530000Y-25900000D01*
X119030000Y-24600000D02*
X119530000Y-25100000D01*
X115430000Y-24600000D02*
X119030000Y-24600000D01*
X114930000Y-25100000D02*
X115430000Y-24600000D01*
X114930000Y-25900000D02*
X114930000Y-25100000D01*
X115430000Y-26400000D02*
X114930000Y-25900000D01*
X119030000Y-26400000D02*
X115430000Y-26400000D01*
X119030000Y-23400000D02*
X115430000Y-23400000D01*
X115430000Y-23400000D02*
X114930000Y-22900000D01*
X114930000Y-22900000D02*
X114930000Y-22100000D01*
X114930000Y-22100000D02*
X115430000Y-21600000D01*
X115430000Y-21600000D02*
X119030000Y-21600000D01*
X119030000Y-21600000D02*
X119530000Y-22100000D01*
X119530000Y-22100000D02*
X119530000Y-22900000D01*
X119530000Y-22900000D02*
X119030000Y-23400000D01*
%TO.C,5*%
X119530000Y-19900000D02*
X119030000Y-20400000D01*
X119530000Y-19100000D02*
X119530000Y-19900000D01*
X119030000Y-18600000D02*
X119530000Y-19100000D01*
X115430000Y-18600000D02*
X119030000Y-18600000D01*
X114930000Y-19100000D02*
X115430000Y-18600000D01*
X114930000Y-19900000D02*
X114930000Y-19100000D01*
X115430000Y-20400000D02*
X114930000Y-19900000D01*
X119030000Y-20400000D02*
X115430000Y-20400000D01*
X119030000Y-17400000D02*
X115430000Y-17400000D01*
X115430000Y-17400000D02*
X114930000Y-16900000D01*
X114930000Y-16900000D02*
X114930000Y-16100000D01*
X114930000Y-16100000D02*
X115430000Y-15600000D01*
X115430000Y-15600000D02*
X119030000Y-15600000D01*
X119030000Y-15600000D02*
X119530000Y-16100000D01*
X119530000Y-16100000D02*
X119530000Y-16900000D01*
X119530000Y-16900000D02*
X119030000Y-17400000D01*
%TO.C,3.3*%
X148470000Y-16600000D02*
X148970000Y-16100000D01*
X148470000Y-17400000D02*
X148470000Y-16600000D01*
X148970000Y-17900000D02*
X148470000Y-17400000D01*
X152570000Y-17900000D02*
X148970000Y-17900000D01*
X153070000Y-17400000D02*
X152570000Y-17900000D01*
X153070000Y-16600000D02*
X153070000Y-17400000D01*
X152570000Y-16100000D02*
X153070000Y-16600000D01*
X148970000Y-16100000D02*
X152570000Y-16100000D01*
X148970000Y-19100000D02*
X152570000Y-19100000D01*
X152570000Y-19100000D02*
X153070000Y-19600000D01*
X153070000Y-19600000D02*
X153070000Y-20400000D01*
X153070000Y-20400000D02*
X152570000Y-20900000D01*
X152570000Y-20900000D02*
X148970000Y-20900000D01*
X148970000Y-20900000D02*
X148470000Y-20400000D01*
X148470000Y-20400000D02*
X148470000Y-19600000D01*
X148470000Y-19600000D02*
X148970000Y-19100000D01*
%TO.C,12*%
X148470000Y-23100000D02*
X148970000Y-22600000D01*
X148470000Y-23900000D02*
X148470000Y-23100000D01*
X148970000Y-24400000D02*
X148470000Y-23900000D01*
X152570000Y-24400000D02*
X148970000Y-24400000D01*
X153070000Y-23900000D02*
X152570000Y-24400000D01*
X153070000Y-23100000D02*
X153070000Y-23900000D01*
X152570000Y-22600000D02*
X153070000Y-23100000D01*
X148970000Y-22600000D02*
X152570000Y-22600000D01*
X148970000Y-25600000D02*
X152570000Y-25600000D01*
X152570000Y-25600000D02*
X153070000Y-26100000D01*
X153070000Y-26100000D02*
X153070000Y-26900000D01*
X153070000Y-26900000D02*
X152570000Y-27400000D01*
X152570000Y-27400000D02*
X148970000Y-27400000D01*
X148970000Y-27400000D02*
X148470000Y-26900000D01*
X148470000Y-26900000D02*
X148470000Y-26100000D01*
X148470000Y-26100000D02*
X148970000Y-25600000D01*
D11*
%TO.C,R1*%
X133765000Y-24227064D02*
X133765000Y-23772936D01*
X135235000Y-24227064D02*
X135235000Y-23772936D01*
%TO.C,U1*%
X129910000Y-19090000D02*
X128650000Y-19090000D01*
X123090000Y-19090000D02*
X124350000Y-19090000D01*
X129910000Y-22850000D02*
X129910000Y-19090000D01*
X123090000Y-25100000D02*
X123090000Y-19090000D01*
%TO.C,U2*%
X138090000Y-25100000D02*
X138090000Y-19090000D01*
X144910000Y-22850000D02*
X144910000Y-19090000D01*
X138090000Y-19090000D02*
X139350000Y-19090000D01*
X144910000Y-19090000D02*
X143650000Y-19090000D01*
%TO.C,C1*%
D10*
X128833333Y-28357142D02*
X128785714Y-28404761D01*
X128642857Y-28452380D01*
X128547619Y-28452380D01*
X128404761Y-28404761D01*
X128309523Y-28309523D01*
X128261904Y-28214285D01*
X128214285Y-28023809D01*
X128214285Y-27880952D01*
X128261904Y-27690476D01*
X128309523Y-27595238D01*
X128404761Y-27500000D01*
X128547619Y-27452380D01*
X128642857Y-27452380D01*
X128785714Y-27500000D01*
X128833333Y-27547619D01*
X129785714Y-28452380D02*
X129214285Y-28452380D01*
X129500000Y-28452380D02*
X129500000Y-27452380D01*
X129404761Y-27595238D01*
X129309523Y-27690476D01*
X129214285Y-27738095D01*
%TO.C,C2*%
X143795833Y-28537142D02*
X143748214Y-28584761D01*
X143605357Y-28632380D01*
X143510119Y-28632380D01*
X143367261Y-28584761D01*
X143272023Y-28489523D01*
X143224404Y-28394285D01*
X143176785Y-28203809D01*
X143176785Y-28060952D01*
X143224404Y-27870476D01*
X143272023Y-27775238D01*
X143367261Y-27680000D01*
X143510119Y-27632380D01*
X143605357Y-27632380D01*
X143748214Y-27680000D01*
X143795833Y-27727619D01*
X144176785Y-27727619D02*
X144224404Y-27680000D01*
X144319642Y-27632380D01*
X144557738Y-27632380D01*
X144652976Y-27680000D01*
X144700595Y-27727619D01*
X144748214Y-27822857D01*
X144748214Y-27918095D01*
X144700595Y-28060952D01*
X144129166Y-28632380D01*
X144748214Y-28632380D01*
%TO.C,C3*%
X124833333Y-28537142D02*
X124785714Y-28584761D01*
X124642857Y-28632380D01*
X124547619Y-28632380D01*
X124404761Y-28584761D01*
X124309523Y-28489523D01*
X124261904Y-28394285D01*
X124214285Y-28203809D01*
X124214285Y-28060952D01*
X124261904Y-27870476D01*
X124309523Y-27775238D01*
X124404761Y-27680000D01*
X124547619Y-27632380D01*
X124642857Y-27632380D01*
X124785714Y-27680000D01*
X124833333Y-27727619D01*
X125166666Y-27632380D02*
X125785714Y-27632380D01*
X125452380Y-28013333D01*
X125595238Y-28013333D01*
X125690476Y-28060952D01*
X125738095Y-28108571D01*
X125785714Y-28203809D01*
X125785714Y-28441904D01*
X125738095Y-28537142D01*
X125690476Y-28584761D01*
X125595238Y-28632380D01*
X125309523Y-28632380D01*
X125214285Y-28584761D01*
X125166666Y-28537142D01*
%TO.C,C4*%
X139795833Y-28537142D02*
X139748214Y-28584761D01*
X139605357Y-28632380D01*
X139510119Y-28632380D01*
X139367261Y-28584761D01*
X139272023Y-28489523D01*
X139224404Y-28394285D01*
X139176785Y-28203809D01*
X139176785Y-28060952D01*
X139224404Y-27870476D01*
X139272023Y-27775238D01*
X139367261Y-27680000D01*
X139510119Y-27632380D01*
X139605357Y-27632380D01*
X139748214Y-27680000D01*
X139795833Y-27727619D01*
X140652976Y-27965714D02*
X140652976Y-28632380D01*
X140414880Y-27584761D02*
X140176785Y-28299047D01*
X140795833Y-28299047D01*
%TO.C,D1*%
X137912380Y-20008095D02*
X136912380Y-20008095D01*
X136912380Y-19770000D01*
X136960000Y-19627142D01*
X137055238Y-19531904D01*
X137150476Y-19484285D01*
X137340952Y-19436666D01*
X137483809Y-19436666D01*
X137674285Y-19484285D01*
X137769523Y-19531904D01*
X137864761Y-19627142D01*
X137912380Y-19770000D01*
X137912380Y-20008095D01*
X137912380Y-18484285D02*
X137912380Y-19055714D01*
X137912380Y-18770000D02*
X136912380Y-18770000D01*
X137055238Y-18865238D01*
X137150476Y-18960476D01*
X137198095Y-19055714D01*
%TO.C,J1*%
X134166666Y-30452380D02*
X134166666Y-31166666D01*
X134119047Y-31309523D01*
X134023809Y-31404761D01*
X133880952Y-31452380D01*
X133785714Y-31452380D01*
X135166666Y-31452380D02*
X134595238Y-31452380D01*
X134880952Y-31452380D02*
X134880952Y-30452380D01*
X134785714Y-30595238D01*
X134690476Y-30690476D01*
X134595238Y-30738095D01*
%TO.C,12*%
X121309523Y-25952380D02*
X120738095Y-25952380D01*
X121023809Y-25952380D02*
X121023809Y-24952380D01*
X120928571Y-25095238D01*
X120833333Y-25190476D01*
X120738095Y-25238095D01*
X121690476Y-25047619D02*
X121738095Y-25000000D01*
X121833333Y-24952380D01*
X122071428Y-24952380D01*
X122166666Y-25000000D01*
X122214285Y-25047619D01*
X122261904Y-25142857D01*
X122261904Y-25238095D01*
X122214285Y-25380952D01*
X121642857Y-25952380D01*
X122261904Y-25952380D01*
X121309523Y-22952380D02*
X120738095Y-22952380D01*
X121023809Y-22952380D02*
X121023809Y-21952380D01*
X120928571Y-22095238D01*
X120833333Y-22190476D01*
X120738095Y-22238095D01*
X121690476Y-22047619D02*
X121738095Y-22000000D01*
X121833333Y-21952380D01*
X122071428Y-21952380D01*
X122166666Y-22000000D01*
X122214285Y-22047619D01*
X122261904Y-22142857D01*
X122261904Y-22238095D01*
X122214285Y-22380952D01*
X121642857Y-22952380D01*
X122261904Y-22952380D01*
%TO.C,5*%
X121738095Y-18952380D02*
X121261904Y-18952380D01*
X121214285Y-19428571D01*
X121261904Y-19380952D01*
X121357142Y-19333333D01*
X121595238Y-19333333D01*
X121690476Y-19380952D01*
X121738095Y-19428571D01*
X121785714Y-19523809D01*
X121785714Y-19761904D01*
X121738095Y-19857142D01*
X121690476Y-19904761D01*
X121595238Y-19952380D01*
X121357142Y-19952380D01*
X121261904Y-19904761D01*
X121214285Y-19857142D01*
X121738095Y-15952380D02*
X121261904Y-15952380D01*
X121214285Y-16428571D01*
X121261904Y-16380952D01*
X121357142Y-16333333D01*
X121595238Y-16333333D01*
X121690476Y-16380952D01*
X121738095Y-16428571D01*
X121785714Y-16523809D01*
X121785714Y-16761904D01*
X121738095Y-16857142D01*
X121690476Y-16904761D01*
X121595238Y-16952380D01*
X121357142Y-16952380D01*
X121261904Y-16904761D01*
X121214285Y-16857142D01*
%TO.C,3.3*%
X145452380Y-16452380D02*
X146071428Y-16452380D01*
X145738095Y-16833333D01*
X145880952Y-16833333D01*
X145976190Y-16880952D01*
X146023809Y-16928571D01*
X146071428Y-17023809D01*
X146071428Y-17261904D01*
X146023809Y-17357142D01*
X145976190Y-17404761D01*
X145880952Y-17452380D01*
X145595238Y-17452380D01*
X145500000Y-17404761D01*
X145452380Y-17357142D01*
X146500000Y-17357142D02*
X146547619Y-17404761D01*
X146500000Y-17452380D01*
X146452380Y-17404761D01*
X146500000Y-17357142D01*
X146500000Y-17452380D01*
X146880952Y-16452380D02*
X147500000Y-16452380D01*
X147166666Y-16833333D01*
X147309523Y-16833333D01*
X147404761Y-16880952D01*
X147452380Y-16928571D01*
X147500000Y-17023809D01*
X147500000Y-17261904D01*
X147452380Y-17357142D01*
X147404761Y-17404761D01*
X147309523Y-17452380D01*
X147023809Y-17452380D01*
X146928571Y-17404761D01*
X146880952Y-17357142D01*
X145452380Y-19452380D02*
X146071428Y-19452380D01*
X145738095Y-19833333D01*
X145880952Y-19833333D01*
X145976190Y-19880952D01*
X146023809Y-19928571D01*
X146071428Y-20023809D01*
X146071428Y-20261904D01*
X146023809Y-20357142D01*
X145976190Y-20404761D01*
X145880952Y-20452380D01*
X145595238Y-20452380D01*
X145500000Y-20404761D01*
X145452380Y-20357142D01*
X146500000Y-20357142D02*
X146547619Y-20404761D01*
X146500000Y-20452380D01*
X146452380Y-20404761D01*
X146500000Y-20357142D01*
X146500000Y-20452380D01*
X146880952Y-19452380D02*
X147500000Y-19452380D01*
X147166666Y-19833333D01*
X147309523Y-19833333D01*
X147404761Y-19880952D01*
X147452380Y-19928571D01*
X147500000Y-20023809D01*
X147500000Y-20261904D01*
X147452380Y-20357142D01*
X147404761Y-20404761D01*
X147309523Y-20452380D01*
X147023809Y-20452380D01*
X146928571Y-20404761D01*
X146880952Y-20357142D01*
%TO.C,12*%
X146309523Y-23952380D02*
X145738095Y-23952380D01*
X146023809Y-23952380D02*
X146023809Y-22952380D01*
X145928571Y-23095238D01*
X145833333Y-23190476D01*
X145738095Y-23238095D01*
X146690476Y-23047619D02*
X146738095Y-23000000D01*
X146833333Y-22952380D01*
X147071428Y-22952380D01*
X147166666Y-23000000D01*
X147214285Y-23047619D01*
X147261904Y-23142857D01*
X147261904Y-23238095D01*
X147214285Y-23380952D01*
X146642857Y-23952380D01*
X147261904Y-23952380D01*
X146309523Y-26952380D02*
X145738095Y-26952380D01*
X146023809Y-26952380D02*
X146023809Y-25952380D01*
X145928571Y-26095238D01*
X145833333Y-26190476D01*
X145738095Y-26238095D01*
X146690476Y-26047619D02*
X146738095Y-26000000D01*
X146833333Y-25952380D01*
X147071428Y-25952380D01*
X147166666Y-26000000D01*
X147214285Y-26047619D01*
X147261904Y-26142857D01*
X147261904Y-26238095D01*
X147214285Y-26380952D01*
X146642857Y-26952380D01*
X147261904Y-26952380D01*
%TO.C,R1*%
X133302380Y-24166666D02*
X132826190Y-24500000D01*
X133302380Y-24738095D02*
X132302380Y-24738095D01*
X132302380Y-24357142D01*
X132350000Y-24261904D01*
X132397619Y-24214285D01*
X132492857Y-24166666D01*
X132635714Y-24166666D01*
X132730952Y-24214285D01*
X132778571Y-24261904D01*
X132826190Y-24357142D01*
X132826190Y-24738095D01*
X133302380Y-23214285D02*
X133302380Y-23785714D01*
X133302380Y-23500000D02*
X132302380Y-23500000D01*
X132445238Y-23595238D01*
X132540476Y-23690476D01*
X132588095Y-23785714D01*
%TO.C,U1*%
X125738095Y-20452380D02*
X125738095Y-21261904D01*
X125785714Y-21357142D01*
X125833333Y-21404761D01*
X125928571Y-21452380D01*
X126119047Y-21452380D01*
X126214285Y-21404761D01*
X126261904Y-21357142D01*
X126309523Y-21261904D01*
X126309523Y-20452380D01*
X127309523Y-21452380D02*
X126738095Y-21452380D01*
X127023809Y-21452380D02*
X127023809Y-20452380D01*
X126928571Y-20595238D01*
X126833333Y-20690476D01*
X126738095Y-20738095D01*
%TO.C,U2*%
X140738095Y-20452380D02*
X140738095Y-21261904D01*
X140785714Y-21357142D01*
X140833333Y-21404761D01*
X140928571Y-21452380D01*
X141119047Y-21452380D01*
X141214285Y-21404761D01*
X141261904Y-21357142D01*
X141309523Y-21261904D01*
X141309523Y-20452380D01*
X141738095Y-20547619D02*
X141785714Y-20500000D01*
X141880952Y-20452380D01*
X142119047Y-20452380D01*
X142214285Y-20500000D01*
X142261904Y-20547619D01*
X142309523Y-20642857D01*
X142309523Y-20738095D01*
X142261904Y-20880952D01*
X141690476Y-21452380D01*
X142309523Y-21452380D01*
%TD*%
M02*
