%TF.GenerationSoftware,KiCad,Pcbnew,(5.1.9)-1*%
%TF.CreationDate,2021-04-17T12:39:32+05:30*%
%TF.ProjectId,dcSplitter,64635370-6c69-4747-9465-722e6b696361,rev?*%
%TF.SameCoordinates,Original*%
%TF.FileFunction,Paste,Top*%
%TF.FilePolarity,Positive*%
%FSLAX46Y46*%
G04 Gerber Fmt 4.6, Leading zero omitted, Abs format (unit mm)*
G04 Created by KiCad (PCBNEW (5.1.9)-1) date 2021-04-17 12:39:32*
%MOMM*%
%LPD*%
G01*
G04 APERTURE LIST*
%ADD10R,3.000000X2.000000*%
%ADD11R,3.800000X2.000000*%
%ADD12R,1.500000X2.000000*%
G04 APERTURE END LIST*
%TO.C,C1*%
G36*
G01*
X129450000Y-26975000D02*
X129450000Y-26025000D01*
G75*
G02*
X129700000Y-25775000I250000J0D01*
G01*
X130375000Y-25775000D01*
G75*
G02*
X130625000Y-26025000I0J-250000D01*
G01*
X130625000Y-26975000D01*
G75*
G02*
X130375000Y-27225000I-250000J0D01*
G01*
X129700000Y-27225000D01*
G75*
G02*
X129450000Y-26975000I0J250000D01*
G01*
G37*
G36*
G01*
X127375000Y-26975000D02*
X127375000Y-26025000D01*
G75*
G02*
X127625000Y-25775000I250000J0D01*
G01*
X128300000Y-25775000D01*
G75*
G02*
X128550000Y-26025000I0J-250000D01*
G01*
X128550000Y-26975000D01*
G75*
G02*
X128300000Y-27225000I-250000J0D01*
G01*
X127625000Y-27225000D01*
G75*
G02*
X127375000Y-26975000I0J250000D01*
G01*
G37*
%TD*%
%TO.C,C2*%
G36*
G01*
X145587500Y-26025000D02*
X145587500Y-26975000D01*
G75*
G02*
X145337500Y-27225000I-250000J0D01*
G01*
X144662500Y-27225000D01*
G75*
G02*
X144412500Y-26975000I0J250000D01*
G01*
X144412500Y-26025000D01*
G75*
G02*
X144662500Y-25775000I250000J0D01*
G01*
X145337500Y-25775000D01*
G75*
G02*
X145587500Y-26025000I0J-250000D01*
G01*
G37*
G36*
G01*
X143512500Y-26025000D02*
X143512500Y-26975000D01*
G75*
G02*
X143262500Y-27225000I-250000J0D01*
G01*
X142587500Y-27225000D01*
G75*
G02*
X142337500Y-26975000I0J250000D01*
G01*
X142337500Y-26025000D01*
G75*
G02*
X142587500Y-25775000I250000J0D01*
G01*
X143262500Y-25775000D01*
G75*
G02*
X143512500Y-26025000I0J-250000D01*
G01*
G37*
%TD*%
%TO.C,C3*%
G36*
G01*
X124550000Y-26025000D02*
X124550000Y-26975000D01*
G75*
G02*
X124300000Y-27225000I-250000J0D01*
G01*
X123625000Y-27225000D01*
G75*
G02*
X123375000Y-26975000I0J250000D01*
G01*
X123375000Y-26025000D01*
G75*
G02*
X123625000Y-25775000I250000J0D01*
G01*
X124300000Y-25775000D01*
G75*
G02*
X124550000Y-26025000I0J-250000D01*
G01*
G37*
G36*
G01*
X126625000Y-26025000D02*
X126625000Y-26975000D01*
G75*
G02*
X126375000Y-27225000I-250000J0D01*
G01*
X125700000Y-27225000D01*
G75*
G02*
X125450000Y-26975000I0J250000D01*
G01*
X125450000Y-26025000D01*
G75*
G02*
X125700000Y-25775000I250000J0D01*
G01*
X126375000Y-25775000D01*
G75*
G02*
X126625000Y-26025000I0J-250000D01*
G01*
G37*
%TD*%
%TO.C,C4*%
G36*
G01*
X141587500Y-26025000D02*
X141587500Y-26975000D01*
G75*
G02*
X141337500Y-27225000I-250000J0D01*
G01*
X140662500Y-27225000D01*
G75*
G02*
X140412500Y-26975000I0J250000D01*
G01*
X140412500Y-26025000D01*
G75*
G02*
X140662500Y-25775000I250000J0D01*
G01*
X141337500Y-25775000D01*
G75*
G02*
X141587500Y-26025000I0J-250000D01*
G01*
G37*
G36*
G01*
X139512500Y-26025000D02*
X139512500Y-26975000D01*
G75*
G02*
X139262500Y-27225000I-250000J0D01*
G01*
X138587500Y-27225000D01*
G75*
G02*
X138337500Y-26975000I0J250000D01*
G01*
X138337500Y-26025000D01*
G75*
G02*
X138587500Y-25775000I250000J0D01*
G01*
X139262500Y-25775000D01*
G75*
G02*
X139512500Y-26025000I0J-250000D01*
G01*
G37*
%TD*%
D10*
%TO.C,J1*%
X140000000Y-38500000D03*
X140000000Y-32500000D03*
X129000000Y-32500000D03*
X129000000Y-38500000D03*
%TD*%
%TO.C,R1*%
G36*
G01*
X134950001Y-25600000D02*
X134049999Y-25600000D01*
G75*
G02*
X133800000Y-25350001I0J249999D01*
G01*
X133800000Y-24649999D01*
G75*
G02*
X134049999Y-24400000I249999J0D01*
G01*
X134950001Y-24400000D01*
G75*
G02*
X135200000Y-24649999I0J-249999D01*
G01*
X135200000Y-25350001D01*
G75*
G02*
X134950001Y-25600000I-249999J0D01*
G01*
G37*
G36*
G01*
X134950001Y-23600000D02*
X134049999Y-23600000D01*
G75*
G02*
X133800000Y-23350001I0J249999D01*
G01*
X133800000Y-22649999D01*
G75*
G02*
X134049999Y-22400000I249999J0D01*
G01*
X134950001Y-22400000D01*
G75*
G02*
X135200000Y-22649999I0J-249999D01*
G01*
X135200000Y-23350001D01*
G75*
G02*
X134950001Y-23600000I-249999J0D01*
G01*
G37*
%TD*%
D11*
%TO.C,U1*%
X126500000Y-17850000D03*
D12*
X126500000Y-24150000D03*
X128800000Y-24150000D03*
X124200000Y-24150000D03*
%TD*%
%TO.C,U2*%
X139200000Y-24150000D03*
X143800000Y-24150000D03*
X141500000Y-24150000D03*
D11*
X141500000Y-17850000D03*
%TD*%
M02*
