M48
; DRILL file {KiCad (5.1.9)-1} date 04/17/21 12:40:15
; FORMAT={-:-/ absolute / inch / decimal}
; #@! TF.CreationDate,2021-04-17T12:40:15+05:30
; #@! TF.GenerationSoftware,Kicad,Pcbnew,(5.1.9)-1
; #@! TF.FileFunction,Plated,1,2,PTH
FMAT,2
INCH
T1C0.0315
T2C0.0354
T3C0.0394
%
G90
G05
T1
X4.5654Y-0.6496
X4.5654Y-0.7677
X4.5654Y-0.8858
X4.5654Y-1.0039
X4.6654Y-0.6496
X4.6654Y-0.7677
X4.6654Y-0.8858
X4.6654Y-1.0039
X5.8858Y-0.6693
X5.8858Y-0.7874
X5.8858Y-0.9252
X5.8858Y-1.0433
X5.9858Y-0.6693
X5.9858Y-0.7874
X5.9858Y-0.9252
X5.9858Y-1.0433
T2
X5.2953Y-0.7087
X5.2953Y-0.8087
T3
X4.3307Y-0.7874
X4.3307Y-0.8874
X4.4307Y-0.7874
X4.4307Y-0.8874
X6.122Y-0.7874
X6.122Y-0.8874
X6.222Y-0.7874
X6.222Y-0.8874
T0
M30
