M48
; DRILL file {KiCad (5.1.9)-1} date 04/18/21 11:45:08
; FORMAT={-:-/ absolute / inch / decimal}
; #@! TF.CreationDate,2021-04-18T11:45:08+05:30
; #@! TF.GenerationSoftware,Kicad,Pcbnew,(5.1.9)-1
; #@! TF.FileFunction,Plated,1,2,PTH
FMAT,2
INCH
T1C0.0157
T2C0.0354
T3C0.0394
%
G90
G05
T1
X4.3Y-1.16
X4.3553Y-0.6053
X4.4187Y-1.1313
X4.44Y-0.65
X4.59Y-1.18
X4.83Y-0.71
X4.83Y-0.81
X4.87Y-1.18
X4.89Y-0.57
X4.93Y-0.83
X5.09Y-0.83
X5.11Y-0.71
X5.11Y-1.14
X5.12Y-0.59
X5.21Y-1.42
X5.21Y-1.59
X5.29Y-1.08
X5.35Y-1.24
X5.39Y-0.94
X5.4Y-1.59
X5.4007Y-1.3907
X5.42Y-0.73
X5.47Y-0.82
X5.64Y-0.86
X5.65Y-0.57
X5.72Y-0.81
X5.72Y-1.19
X5.76Y-0.73
X5.77Y-0.88
X6.085Y-1.105
X6.122Y-1.008
X6.14Y-0.59
X6.23Y-1.01
X6.23Y-1.16
T2
X5.2953Y-0.7087
X5.2953Y-0.8087
T3
X4.3307Y-0.7874
X4.3307Y-0.8874
X4.4307Y-0.7874
X4.4307Y-0.8874
X4.62Y-0.65
X4.62Y-0.79
X4.62Y-0.94
X4.62Y-1.09
X4.72Y-0.65
X4.72Y-0.79
X4.72Y-0.94
X4.72Y-1.09
X5.84Y-0.66
X5.84Y-0.81
X5.84Y-0.96
X5.84Y-1.11
X5.94Y-0.66
X5.94Y-0.81
X5.94Y-0.96
X5.94Y-1.11
X6.122Y-0.7874
X6.122Y-0.8874
X6.222Y-0.7874
X6.222Y-0.8874
T0
M30
