%TF.GenerationSoftware,KiCad,Pcbnew,(5.1.9)-1*%
%TF.CreationDate,2021-04-17T12:39:32+05:30*%
%TF.ProjectId,dcSplitter,64635370-6c69-4747-9465-722e6b696361,rev?*%
%TF.SameCoordinates,Original*%
%TF.FileFunction,Copper,L2,Bot*%
%TF.FilePolarity,Positive*%
%FSLAX46Y46*%
G04 Gerber Fmt 4.6, Leading zero omitted, Abs format (unit mm)*
G04 Created by KiCad (PCBNEW (5.1.9)-1) date 2021-04-17 12:39:32*
%MOMM*%
%LPD*%
G01*
G04 APERTURE LIST*
%TA.AperFunction,ComponentPad*%
%ADD10O,1.700000X1.700000*%
%TD*%
%TA.AperFunction,ComponentPad*%
%ADD11R,1.700000X1.700000*%
%TD*%
%TA.AperFunction,ComponentPad*%
%ADD12R,1.800000X1.800000*%
%TD*%
%TA.AperFunction,ComponentPad*%
%ADD13C,1.800000*%
%TD*%
%TA.AperFunction,ComponentPad*%
%ADD14C,1.400000*%
%TD*%
%TA.AperFunction,Conductor*%
%ADD15C,0.160000*%
%TD*%
%TA.AperFunction,Conductor*%
%ADD16C,0.100000*%
%TD*%
G04 APERTURE END LIST*
D10*
%TO.P,J3,4*%
%TO.N,GND*%
X155500000Y-20000000D03*
%TO.P,J3,3*%
X155500000Y-22540000D03*
%TO.P,J3,2*%
%TO.N,Net-(J3-Pad1)*%
X158040000Y-20000000D03*
D11*
%TO.P,J3,1*%
X158040000Y-22540000D03*
%TD*%
D12*
%TO.P,D1,1*%
%TO.N,GND*%
X134500000Y-18000000D03*
D13*
%TO.P,D1,2*%
%TO.N,Net-(D1-Pad2)*%
X134500000Y-20540000D03*
%TD*%
D14*
%TO.P,12,2*%
%TO.N,Net-(J2-Pad1)*%
X115960000Y-25500000D03*
%TO.P,12,1*%
%TO.N,Net-(C1-Pad1)*%
X118500000Y-25500000D03*
%TD*%
%TO.P,12,1*%
%TO.N,Net-(C1-Pad1)*%
X118500000Y-22500000D03*
%TO.P,12,2*%
%TO.N,Net-(J2-Pad1)*%
X115960000Y-22500000D03*
%TD*%
%TO.P,5,2*%
%TO.N,Net-(J2-Pad1)*%
X115960000Y-19500000D03*
%TO.P,5,1*%
%TO.N,Net-(C3-Pad1)*%
X118500000Y-19500000D03*
%TD*%
%TO.P,5,1*%
%TO.N,Net-(C3-Pad1)*%
X118500000Y-16500000D03*
%TO.P,5,2*%
%TO.N,Net-(J2-Pad1)*%
X115960000Y-16500000D03*
%TD*%
%TO.P,3.3,2*%
%TO.N,Net-(J3-Pad1)*%
X152040000Y-17000000D03*
%TO.P,3.3,1*%
%TO.N,Net-(C4-Pad1)*%
X149500000Y-17000000D03*
%TD*%
%TO.P,3.3,1*%
%TO.N,Net-(C4-Pad1)*%
X149500000Y-20000000D03*
%TO.P,3.3,2*%
%TO.N,Net-(J3-Pad1)*%
X152040000Y-20000000D03*
%TD*%
%TO.P,12,2*%
%TO.N,Net-(J3-Pad1)*%
X152040000Y-23500000D03*
%TO.P,12,1*%
%TO.N,Net-(C1-Pad1)*%
X149500000Y-23500000D03*
%TD*%
%TO.P,12,1*%
%TO.N,Net-(C1-Pad1)*%
X149500000Y-26500000D03*
%TO.P,12,2*%
%TO.N,Net-(J3-Pad1)*%
X152040000Y-26500000D03*
%TD*%
D11*
%TO.P,J2,1*%
%TO.N,Net-(J2-Pad1)*%
X112540000Y-22540000D03*
D10*
%TO.P,J2,2*%
X112540000Y-20000000D03*
%TO.P,J2,3*%
%TO.N,GND*%
X110000000Y-22540000D03*
%TO.P,J2,4*%
X110000000Y-20000000D03*
%TD*%
D15*
%TO.N,GND*%
X158734677Y-13814789D02*
X158960418Y-13882944D01*
X159168619Y-13993647D01*
X159351354Y-14142683D01*
X159501663Y-14324374D01*
X159613814Y-14531794D01*
X159683543Y-14757053D01*
X159712000Y-15027799D01*
X159712001Y-29961451D01*
X159685211Y-30234678D01*
X159617055Y-30460420D01*
X159506353Y-30668620D01*
X159357317Y-30851355D01*
X159175626Y-31001662D01*
X158968206Y-31113814D01*
X158742947Y-31183543D01*
X158472201Y-31212000D01*
X144961295Y-31212000D01*
X144926992Y-31215378D01*
X144914618Y-31215292D01*
X144903668Y-31216366D01*
X144515475Y-31257167D01*
X144445482Y-31271535D01*
X144375359Y-31284911D01*
X144364828Y-31288090D01*
X144364822Y-31288092D01*
X143991951Y-31403515D01*
X143926126Y-31431185D01*
X143859892Y-31457945D01*
X143850182Y-31463109D01*
X143850177Y-31463111D01*
X143850173Y-31463114D01*
X143506823Y-31648762D01*
X143447597Y-31688710D01*
X143387849Y-31727808D01*
X143379332Y-31734754D01*
X143379324Y-31734760D01*
X143379317Y-31734767D01*
X143078568Y-31983568D01*
X143028209Y-32034280D01*
X142977216Y-32084216D01*
X142970208Y-32092687D01*
X142970201Y-32092694D01*
X142970196Y-32092702D01*
X142723502Y-32395178D01*
X142683953Y-32454703D01*
X142643629Y-32513595D01*
X142638400Y-32523265D01*
X142638395Y-32523273D01*
X142638395Y-32523274D01*
X142455146Y-32867914D01*
X142427911Y-32933990D01*
X142399794Y-32999593D01*
X142396542Y-33010095D01*
X142396540Y-33010101D01*
X142396540Y-33010103D01*
X142283722Y-33383774D01*
X142269842Y-33453871D01*
X142255001Y-33523693D01*
X142253852Y-33534626D01*
X142253850Y-33534636D01*
X142253850Y-33534645D01*
X142215761Y-33923104D01*
X142212000Y-33961296D01*
X142212001Y-39961451D01*
X142185211Y-40234678D01*
X142117055Y-40460420D01*
X142006353Y-40668620D01*
X141857317Y-40851355D01*
X141675626Y-41001662D01*
X141468206Y-41113814D01*
X141242947Y-41183543D01*
X140972201Y-41212000D01*
X128038539Y-41212000D01*
X127765322Y-41185211D01*
X127539580Y-41117055D01*
X127331380Y-41006353D01*
X127148645Y-40857317D01*
X126998338Y-40675626D01*
X126886186Y-40468206D01*
X126816457Y-40242947D01*
X126788000Y-39972201D01*
X126788000Y-38400000D01*
X132905526Y-38400000D01*
X132931360Y-38662294D01*
X133007868Y-38914508D01*
X133132111Y-39146950D01*
X133299313Y-39350687D01*
X133503050Y-39517889D01*
X133735492Y-39642132D01*
X133987706Y-39718640D01*
X134184269Y-39738000D01*
X134815731Y-39738000D01*
X135012294Y-39718640D01*
X135264508Y-39642132D01*
X135496950Y-39517889D01*
X135700687Y-39350687D01*
X135867889Y-39146950D01*
X135992132Y-38914508D01*
X136068640Y-38662294D01*
X136094474Y-38400000D01*
X136068640Y-38137706D01*
X135992132Y-37885492D01*
X135867889Y-37653050D01*
X135700687Y-37449313D01*
X135496950Y-37282111D01*
X135264508Y-37157868D01*
X135012294Y-37081360D01*
X134815731Y-37062000D01*
X134184269Y-37062000D01*
X133987706Y-37081360D01*
X133735492Y-37157868D01*
X133503050Y-37282111D01*
X133299313Y-37449313D01*
X133132111Y-37653050D01*
X133007868Y-37885492D01*
X132931360Y-38137706D01*
X132905526Y-38400000D01*
X126788000Y-38400000D01*
X126788000Y-33961295D01*
X126784622Y-33926992D01*
X126784708Y-33914618D01*
X126783634Y-33903668D01*
X126777321Y-33843596D01*
X132912000Y-33843596D01*
X132912000Y-34156404D01*
X132973026Y-34463203D01*
X133092732Y-34752200D01*
X133266520Y-35012291D01*
X133487709Y-35233480D01*
X133747800Y-35407268D01*
X134036797Y-35526974D01*
X134343596Y-35588000D01*
X134656404Y-35588000D01*
X134963203Y-35526974D01*
X135252200Y-35407268D01*
X135512291Y-35233480D01*
X135733480Y-35012291D01*
X135907268Y-34752200D01*
X136026974Y-34463203D01*
X136088000Y-34156404D01*
X136088000Y-33843596D01*
X136026974Y-33536797D01*
X135907268Y-33247800D01*
X135733480Y-32987709D01*
X135512291Y-32766520D01*
X135252200Y-32592732D01*
X134963203Y-32473026D01*
X134656404Y-32412000D01*
X134343596Y-32412000D01*
X134036797Y-32473026D01*
X133747800Y-32592732D01*
X133487709Y-32766520D01*
X133266520Y-32987709D01*
X133092732Y-33247800D01*
X132973026Y-33536797D01*
X132912000Y-33843596D01*
X126777321Y-33843596D01*
X126742833Y-33515475D01*
X126728465Y-33445482D01*
X126715089Y-33375359D01*
X126711909Y-33364826D01*
X126596485Y-32991951D01*
X126568815Y-32926126D01*
X126542055Y-32859892D01*
X126536889Y-32850178D01*
X126536889Y-32850177D01*
X126536886Y-32850173D01*
X126351238Y-32506823D01*
X126311290Y-32447597D01*
X126272192Y-32387849D01*
X126265246Y-32379332D01*
X126265240Y-32379324D01*
X126265233Y-32379317D01*
X126016432Y-32078568D01*
X125965720Y-32028209D01*
X125915784Y-31977216D01*
X125907313Y-31970208D01*
X125907306Y-31970201D01*
X125907298Y-31970196D01*
X125604822Y-31723502D01*
X125545297Y-31683953D01*
X125486405Y-31643629D01*
X125476735Y-31638400D01*
X125476727Y-31638395D01*
X125476719Y-31638392D01*
X125132086Y-31455146D01*
X125066010Y-31427911D01*
X125000407Y-31399794D01*
X124989905Y-31396542D01*
X124989899Y-31396540D01*
X124989893Y-31396539D01*
X124616226Y-31283722D01*
X124546129Y-31269842D01*
X124476307Y-31255001D01*
X124465374Y-31253852D01*
X124465364Y-31253850D01*
X124465355Y-31253850D01*
X124076896Y-31215761D01*
X124076892Y-31215761D01*
X124038705Y-31212000D01*
X109538539Y-31212000D01*
X109265322Y-31185211D01*
X109039580Y-31117055D01*
X108831380Y-31006353D01*
X108648645Y-30857317D01*
X108498338Y-30675626D01*
X108386186Y-30468206D01*
X108316457Y-30242947D01*
X108288000Y-29972201D01*
X108288000Y-25373143D01*
X114672000Y-25373143D01*
X114672000Y-25626857D01*
X114721497Y-25875696D01*
X114818589Y-26110097D01*
X114959545Y-26321052D01*
X115138948Y-26500455D01*
X115349903Y-26641411D01*
X115584304Y-26738503D01*
X115833143Y-26788000D01*
X116086857Y-26788000D01*
X116335696Y-26738503D01*
X116570097Y-26641411D01*
X116781052Y-26500455D01*
X116960455Y-26321052D01*
X117101411Y-26110097D01*
X117198503Y-25875696D01*
X117230000Y-25717349D01*
X117261497Y-25875696D01*
X117358589Y-26110097D01*
X117499545Y-26321052D01*
X117678948Y-26500455D01*
X117889903Y-26641411D01*
X118124304Y-26738503D01*
X118373143Y-26788000D01*
X118626857Y-26788000D01*
X118875696Y-26738503D01*
X119110097Y-26641411D01*
X119321052Y-26500455D01*
X119448364Y-26373143D01*
X148212000Y-26373143D01*
X148212000Y-26626857D01*
X148261497Y-26875696D01*
X148358589Y-27110097D01*
X148499545Y-27321052D01*
X148678948Y-27500455D01*
X148889903Y-27641411D01*
X149124304Y-27738503D01*
X149373143Y-27788000D01*
X149626857Y-27788000D01*
X149875696Y-27738503D01*
X150110097Y-27641411D01*
X150321052Y-27500455D01*
X150500455Y-27321052D01*
X150641411Y-27110097D01*
X150738503Y-26875696D01*
X150770000Y-26717349D01*
X150801497Y-26875696D01*
X150898589Y-27110097D01*
X151039545Y-27321052D01*
X151218948Y-27500455D01*
X151429903Y-27641411D01*
X151664304Y-27738503D01*
X151913143Y-27788000D01*
X152166857Y-27788000D01*
X152415696Y-27738503D01*
X152650097Y-27641411D01*
X152861052Y-27500455D01*
X153040455Y-27321052D01*
X153181411Y-27110097D01*
X153278503Y-26875696D01*
X153328000Y-26626857D01*
X153328000Y-26373143D01*
X153278503Y-26124304D01*
X153181411Y-25889903D01*
X153040455Y-25678948D01*
X152861052Y-25499545D01*
X152650097Y-25358589D01*
X152415696Y-25261497D01*
X152166857Y-25212000D01*
X151913143Y-25212000D01*
X151664304Y-25261497D01*
X151429903Y-25358589D01*
X151218948Y-25499545D01*
X151039545Y-25678948D01*
X150898589Y-25889903D01*
X150801497Y-26124304D01*
X150770000Y-26282651D01*
X150738503Y-26124304D01*
X150641411Y-25889903D01*
X150500455Y-25678948D01*
X150321052Y-25499545D01*
X150110097Y-25358589D01*
X149875696Y-25261497D01*
X149626857Y-25212000D01*
X149373143Y-25212000D01*
X149124304Y-25261497D01*
X148889903Y-25358589D01*
X148678948Y-25499545D01*
X148499545Y-25678948D01*
X148358589Y-25889903D01*
X148261497Y-26124304D01*
X148212000Y-26373143D01*
X119448364Y-26373143D01*
X119500455Y-26321052D01*
X119641411Y-26110097D01*
X119738503Y-25875696D01*
X119788000Y-25626857D01*
X119788000Y-25373143D01*
X119738503Y-25124304D01*
X119641411Y-24889903D01*
X119500455Y-24678948D01*
X119321052Y-24499545D01*
X119110097Y-24358589D01*
X118875696Y-24261497D01*
X118626857Y-24212000D01*
X118373143Y-24212000D01*
X118124304Y-24261497D01*
X117889903Y-24358589D01*
X117678948Y-24499545D01*
X117499545Y-24678948D01*
X117358589Y-24889903D01*
X117261497Y-25124304D01*
X117230000Y-25282651D01*
X117198503Y-25124304D01*
X117101411Y-24889903D01*
X116960455Y-24678948D01*
X116781052Y-24499545D01*
X116570097Y-24358589D01*
X116335696Y-24261497D01*
X116086857Y-24212000D01*
X115833143Y-24212000D01*
X115584304Y-24261497D01*
X115349903Y-24358589D01*
X115138948Y-24499545D01*
X114959545Y-24678948D01*
X114818589Y-24889903D01*
X114721497Y-25124304D01*
X114672000Y-25373143D01*
X108288000Y-25373143D01*
X108288000Y-23169976D01*
X108707320Y-23169976D01*
X108855061Y-23410061D01*
X109046801Y-23616710D01*
X109275172Y-23781981D01*
X109370027Y-23832663D01*
X109580000Y-23760771D01*
X109580000Y-22960000D01*
X108771685Y-22960000D01*
X108707320Y-23169976D01*
X108288000Y-23169976D01*
X108288000Y-20629976D01*
X108707320Y-20629976D01*
X108855061Y-20870061D01*
X109046801Y-21076710D01*
X109275172Y-21241981D01*
X109327612Y-21270000D01*
X109275172Y-21298019D01*
X109046801Y-21463290D01*
X108855061Y-21669939D01*
X108707320Y-21910024D01*
X108771685Y-22120000D01*
X109580000Y-22120000D01*
X109580000Y-21319229D01*
X109436218Y-21270000D01*
X109580000Y-21220771D01*
X109580000Y-20420000D01*
X108771685Y-20420000D01*
X108707320Y-20629976D01*
X108288000Y-20629976D01*
X108288000Y-19370024D01*
X108707320Y-19370024D01*
X108771685Y-19580000D01*
X109580000Y-19580000D01*
X109580000Y-18779229D01*
X110420000Y-18779229D01*
X110420000Y-19580000D01*
X110440000Y-19580000D01*
X110440000Y-20420000D01*
X110420000Y-20420000D01*
X110420000Y-21220771D01*
X110563782Y-21270000D01*
X110420000Y-21319229D01*
X110420000Y-22120000D01*
X110440000Y-22120000D01*
X110440000Y-22960000D01*
X110420000Y-22960000D01*
X110420000Y-23760771D01*
X110629973Y-23832663D01*
X110724828Y-23781981D01*
X110953199Y-23616710D01*
X111105335Y-23452745D01*
X111110508Y-23505268D01*
X111144130Y-23616107D01*
X111198730Y-23718256D01*
X111272209Y-23807791D01*
X111361744Y-23881270D01*
X111463893Y-23935870D01*
X111574732Y-23969492D01*
X111690000Y-23980845D01*
X113390000Y-23980845D01*
X113505268Y-23969492D01*
X113616107Y-23935870D01*
X113718256Y-23881270D01*
X113807791Y-23807791D01*
X113881270Y-23718256D01*
X113935870Y-23616107D01*
X113969492Y-23505268D01*
X113980845Y-23390000D01*
X113980845Y-22373143D01*
X114672000Y-22373143D01*
X114672000Y-22626857D01*
X114721497Y-22875696D01*
X114818589Y-23110097D01*
X114959545Y-23321052D01*
X115138948Y-23500455D01*
X115349903Y-23641411D01*
X115584304Y-23738503D01*
X115833143Y-23788000D01*
X116086857Y-23788000D01*
X116335696Y-23738503D01*
X116570097Y-23641411D01*
X116781052Y-23500455D01*
X116960455Y-23321052D01*
X117101411Y-23110097D01*
X117198503Y-22875696D01*
X117230000Y-22717349D01*
X117261497Y-22875696D01*
X117358589Y-23110097D01*
X117499545Y-23321052D01*
X117678948Y-23500455D01*
X117889903Y-23641411D01*
X118124304Y-23738503D01*
X118373143Y-23788000D01*
X118626857Y-23788000D01*
X118875696Y-23738503D01*
X119110097Y-23641411D01*
X119321052Y-23500455D01*
X119448364Y-23373143D01*
X148212000Y-23373143D01*
X148212000Y-23626857D01*
X148261497Y-23875696D01*
X148358589Y-24110097D01*
X148499545Y-24321052D01*
X148678948Y-24500455D01*
X148889903Y-24641411D01*
X149124304Y-24738503D01*
X149373143Y-24788000D01*
X149626857Y-24788000D01*
X149875696Y-24738503D01*
X150110097Y-24641411D01*
X150321052Y-24500455D01*
X150500455Y-24321052D01*
X150641411Y-24110097D01*
X150738503Y-23875696D01*
X150770000Y-23717349D01*
X150801497Y-23875696D01*
X150898589Y-24110097D01*
X151039545Y-24321052D01*
X151218948Y-24500455D01*
X151429903Y-24641411D01*
X151664304Y-24738503D01*
X151913143Y-24788000D01*
X152166857Y-24788000D01*
X152415696Y-24738503D01*
X152650097Y-24641411D01*
X152861052Y-24500455D01*
X153040455Y-24321052D01*
X153181411Y-24110097D01*
X153278503Y-23875696D01*
X153328000Y-23626857D01*
X153328000Y-23373143D01*
X153287588Y-23169976D01*
X154207320Y-23169976D01*
X154355061Y-23410061D01*
X154546801Y-23616710D01*
X154775172Y-23781981D01*
X154870027Y-23832663D01*
X155080000Y-23760771D01*
X155080000Y-22960000D01*
X154271685Y-22960000D01*
X154207320Y-23169976D01*
X153287588Y-23169976D01*
X153278503Y-23124304D01*
X153181411Y-22889903D01*
X153040455Y-22678948D01*
X152861052Y-22499545D01*
X152650097Y-22358589D01*
X152415696Y-22261497D01*
X152166857Y-22212000D01*
X151913143Y-22212000D01*
X151664304Y-22261497D01*
X151429903Y-22358589D01*
X151218948Y-22499545D01*
X151039545Y-22678948D01*
X150898589Y-22889903D01*
X150801497Y-23124304D01*
X150770000Y-23282651D01*
X150738503Y-23124304D01*
X150641411Y-22889903D01*
X150500455Y-22678948D01*
X150321052Y-22499545D01*
X150110097Y-22358589D01*
X149875696Y-22261497D01*
X149626857Y-22212000D01*
X149373143Y-22212000D01*
X149124304Y-22261497D01*
X148889903Y-22358589D01*
X148678948Y-22499545D01*
X148499545Y-22678948D01*
X148358589Y-22889903D01*
X148261497Y-23124304D01*
X148212000Y-23373143D01*
X119448364Y-23373143D01*
X119500455Y-23321052D01*
X119641411Y-23110097D01*
X119738503Y-22875696D01*
X119788000Y-22626857D01*
X119788000Y-22373143D01*
X119738503Y-22124304D01*
X119641411Y-21889903D01*
X119500455Y-21678948D01*
X119321052Y-21499545D01*
X119110097Y-21358589D01*
X118875696Y-21261497D01*
X118626857Y-21212000D01*
X118373143Y-21212000D01*
X118124304Y-21261497D01*
X117889903Y-21358589D01*
X117678948Y-21499545D01*
X117499545Y-21678948D01*
X117358589Y-21889903D01*
X117261497Y-22124304D01*
X117230000Y-22282651D01*
X117198503Y-22124304D01*
X117101411Y-21889903D01*
X116960455Y-21678948D01*
X116781052Y-21499545D01*
X116570097Y-21358589D01*
X116335696Y-21261497D01*
X116086857Y-21212000D01*
X115833143Y-21212000D01*
X115584304Y-21261497D01*
X115349903Y-21358589D01*
X115138948Y-21499545D01*
X114959545Y-21678948D01*
X114818589Y-21889903D01*
X114721497Y-22124304D01*
X114672000Y-22373143D01*
X113980845Y-22373143D01*
X113980845Y-21690000D01*
X113969492Y-21574732D01*
X113935870Y-21463893D01*
X113881270Y-21361744D01*
X113807791Y-21272209D01*
X113718256Y-21198730D01*
X113616107Y-21144130D01*
X113505268Y-21110508D01*
X113466910Y-21106730D01*
X113656968Y-20916672D01*
X113814339Y-20681148D01*
X113922739Y-20419449D01*
X113978000Y-20141631D01*
X113978000Y-19858369D01*
X113922739Y-19580551D01*
X113836828Y-19373143D01*
X114672000Y-19373143D01*
X114672000Y-19626857D01*
X114721497Y-19875696D01*
X114818589Y-20110097D01*
X114959545Y-20321052D01*
X115138948Y-20500455D01*
X115349903Y-20641411D01*
X115584304Y-20738503D01*
X115833143Y-20788000D01*
X116086857Y-20788000D01*
X116335696Y-20738503D01*
X116570097Y-20641411D01*
X116781052Y-20500455D01*
X116960455Y-20321052D01*
X117101411Y-20110097D01*
X117198503Y-19875696D01*
X117230000Y-19717349D01*
X117261497Y-19875696D01*
X117358589Y-20110097D01*
X117499545Y-20321052D01*
X117678948Y-20500455D01*
X117889903Y-20641411D01*
X118124304Y-20738503D01*
X118373143Y-20788000D01*
X118626857Y-20788000D01*
X118875696Y-20738503D01*
X119110097Y-20641411D01*
X119321052Y-20500455D01*
X119500455Y-20321052D01*
X119641411Y-20110097D01*
X119738503Y-19875696D01*
X119788000Y-19626857D01*
X119788000Y-19373143D01*
X119738503Y-19124304D01*
X119645594Y-18900000D01*
X133009155Y-18900000D01*
X133020508Y-19015268D01*
X133054130Y-19126107D01*
X133108730Y-19228256D01*
X133182209Y-19317791D01*
X133271744Y-19391270D01*
X133373893Y-19445870D01*
X133462808Y-19472842D01*
X133344195Y-19591455D01*
X133181351Y-19835168D01*
X133069183Y-20105966D01*
X133012000Y-20393445D01*
X133012000Y-20686555D01*
X133069183Y-20974034D01*
X133181351Y-21244832D01*
X133344195Y-21488545D01*
X133551455Y-21695805D01*
X133795168Y-21858649D01*
X134065966Y-21970817D01*
X134353445Y-22028000D01*
X134646555Y-22028000D01*
X134934034Y-21970817D01*
X135204832Y-21858649D01*
X135448545Y-21695805D01*
X135655805Y-21488545D01*
X135818649Y-21244832D01*
X135930817Y-20974034D01*
X135988000Y-20686555D01*
X135988000Y-20393445D01*
X135930817Y-20105966D01*
X135834379Y-19873143D01*
X148212000Y-19873143D01*
X148212000Y-20126857D01*
X148261497Y-20375696D01*
X148358589Y-20610097D01*
X148499545Y-20821052D01*
X148678948Y-21000455D01*
X148889903Y-21141411D01*
X149124304Y-21238503D01*
X149373143Y-21288000D01*
X149626857Y-21288000D01*
X149875696Y-21238503D01*
X150110097Y-21141411D01*
X150321052Y-21000455D01*
X150500455Y-20821052D01*
X150641411Y-20610097D01*
X150738503Y-20375696D01*
X150770000Y-20217349D01*
X150801497Y-20375696D01*
X150898589Y-20610097D01*
X151039545Y-20821052D01*
X151218948Y-21000455D01*
X151429903Y-21141411D01*
X151664304Y-21238503D01*
X151913143Y-21288000D01*
X152166857Y-21288000D01*
X152415696Y-21238503D01*
X152650097Y-21141411D01*
X152861052Y-21000455D01*
X153040455Y-20821052D01*
X153168128Y-20629976D01*
X154207320Y-20629976D01*
X154355061Y-20870061D01*
X154546801Y-21076710D01*
X154775172Y-21241981D01*
X154827612Y-21270000D01*
X154775172Y-21298019D01*
X154546801Y-21463290D01*
X154355061Y-21669939D01*
X154207320Y-21910024D01*
X154271685Y-22120000D01*
X155080000Y-22120000D01*
X155080000Y-21319229D01*
X154936218Y-21270000D01*
X155080000Y-21220771D01*
X155080000Y-20420000D01*
X154271685Y-20420000D01*
X154207320Y-20629976D01*
X153168128Y-20629976D01*
X153181411Y-20610097D01*
X153278503Y-20375696D01*
X153328000Y-20126857D01*
X153328000Y-19873143D01*
X153278503Y-19624304D01*
X153181411Y-19389903D01*
X153168129Y-19370024D01*
X154207320Y-19370024D01*
X154271685Y-19580000D01*
X155080000Y-19580000D01*
X155080000Y-18779229D01*
X155920000Y-18779229D01*
X155920000Y-19580000D01*
X155940000Y-19580000D01*
X155940000Y-20420000D01*
X155920000Y-20420000D01*
X155920000Y-21220771D01*
X156063782Y-21270000D01*
X155920000Y-21319229D01*
X155920000Y-22120000D01*
X155940000Y-22120000D01*
X155940000Y-22960000D01*
X155920000Y-22960000D01*
X155920000Y-23760771D01*
X156129973Y-23832663D01*
X156224828Y-23781981D01*
X156453199Y-23616710D01*
X156605335Y-23452745D01*
X156610508Y-23505268D01*
X156644130Y-23616107D01*
X156698730Y-23718256D01*
X156772209Y-23807791D01*
X156861744Y-23881270D01*
X156963893Y-23935870D01*
X157074732Y-23969492D01*
X157190000Y-23980845D01*
X158890000Y-23980845D01*
X159005268Y-23969492D01*
X159116107Y-23935870D01*
X159218256Y-23881270D01*
X159307791Y-23807791D01*
X159381270Y-23718256D01*
X159435870Y-23616107D01*
X159469492Y-23505268D01*
X159480845Y-23390000D01*
X159480845Y-21690000D01*
X159469492Y-21574732D01*
X159435870Y-21463893D01*
X159381270Y-21361744D01*
X159307791Y-21272209D01*
X159218256Y-21198730D01*
X159116107Y-21144130D01*
X159005268Y-21110508D01*
X158966910Y-21106730D01*
X159156968Y-20916672D01*
X159314339Y-20681148D01*
X159422739Y-20419449D01*
X159478000Y-20141631D01*
X159478000Y-19858369D01*
X159422739Y-19580551D01*
X159314339Y-19318852D01*
X159156968Y-19083328D01*
X158956672Y-18883032D01*
X158721148Y-18725661D01*
X158459449Y-18617261D01*
X158181631Y-18562000D01*
X157898369Y-18562000D01*
X157620551Y-18617261D01*
X157358852Y-18725661D01*
X157123328Y-18883032D01*
X156923032Y-19083328D01*
X156765661Y-19318852D01*
X156763862Y-19323194D01*
X156644939Y-19129939D01*
X156453199Y-18923290D01*
X156224828Y-18758019D01*
X156129973Y-18707337D01*
X155920000Y-18779229D01*
X155080000Y-18779229D01*
X154870027Y-18707337D01*
X154775172Y-18758019D01*
X154546801Y-18923290D01*
X154355061Y-19129939D01*
X154207320Y-19370024D01*
X153168129Y-19370024D01*
X153040455Y-19178948D01*
X152861052Y-18999545D01*
X152650097Y-18858589D01*
X152415696Y-18761497D01*
X152166857Y-18712000D01*
X151913143Y-18712000D01*
X151664304Y-18761497D01*
X151429903Y-18858589D01*
X151218948Y-18999545D01*
X151039545Y-19178948D01*
X150898589Y-19389903D01*
X150801497Y-19624304D01*
X150770000Y-19782651D01*
X150738503Y-19624304D01*
X150641411Y-19389903D01*
X150500455Y-19178948D01*
X150321052Y-18999545D01*
X150110097Y-18858589D01*
X149875696Y-18761497D01*
X149626857Y-18712000D01*
X149373143Y-18712000D01*
X149124304Y-18761497D01*
X148889903Y-18858589D01*
X148678948Y-18999545D01*
X148499545Y-19178948D01*
X148358589Y-19389903D01*
X148261497Y-19624304D01*
X148212000Y-19873143D01*
X135834379Y-19873143D01*
X135818649Y-19835168D01*
X135655805Y-19591455D01*
X135537192Y-19472842D01*
X135626107Y-19445870D01*
X135728256Y-19391270D01*
X135817791Y-19317791D01*
X135891270Y-19228256D01*
X135945870Y-19126107D01*
X135979492Y-19015268D01*
X135990845Y-18900000D01*
X135988000Y-18567000D01*
X135841000Y-18420000D01*
X134920000Y-18420000D01*
X134920000Y-18440000D01*
X134080000Y-18440000D01*
X134080000Y-18420000D01*
X133159000Y-18420000D01*
X133012000Y-18567000D01*
X133009155Y-18900000D01*
X119645594Y-18900000D01*
X119641411Y-18889903D01*
X119500455Y-18678948D01*
X119321052Y-18499545D01*
X119110097Y-18358589D01*
X118875696Y-18261497D01*
X118626857Y-18212000D01*
X118373143Y-18212000D01*
X118124304Y-18261497D01*
X117889903Y-18358589D01*
X117678948Y-18499545D01*
X117499545Y-18678948D01*
X117358589Y-18889903D01*
X117261497Y-19124304D01*
X117230000Y-19282651D01*
X117198503Y-19124304D01*
X117101411Y-18889903D01*
X116960455Y-18678948D01*
X116781052Y-18499545D01*
X116570097Y-18358589D01*
X116335696Y-18261497D01*
X116086857Y-18212000D01*
X115833143Y-18212000D01*
X115584304Y-18261497D01*
X115349903Y-18358589D01*
X115138948Y-18499545D01*
X114959545Y-18678948D01*
X114818589Y-18889903D01*
X114721497Y-19124304D01*
X114672000Y-19373143D01*
X113836828Y-19373143D01*
X113814339Y-19318852D01*
X113656968Y-19083328D01*
X113456672Y-18883032D01*
X113221148Y-18725661D01*
X112959449Y-18617261D01*
X112681631Y-18562000D01*
X112398369Y-18562000D01*
X112120551Y-18617261D01*
X111858852Y-18725661D01*
X111623328Y-18883032D01*
X111423032Y-19083328D01*
X111265661Y-19318852D01*
X111263862Y-19323194D01*
X111144939Y-19129939D01*
X110953199Y-18923290D01*
X110724828Y-18758019D01*
X110629973Y-18707337D01*
X110420000Y-18779229D01*
X109580000Y-18779229D01*
X109370027Y-18707337D01*
X109275172Y-18758019D01*
X109046801Y-18923290D01*
X108855061Y-19129939D01*
X108707320Y-19370024D01*
X108288000Y-19370024D01*
X108288000Y-16373143D01*
X114672000Y-16373143D01*
X114672000Y-16626857D01*
X114721497Y-16875696D01*
X114818589Y-17110097D01*
X114959545Y-17321052D01*
X115138948Y-17500455D01*
X115349903Y-17641411D01*
X115584304Y-17738503D01*
X115833143Y-17788000D01*
X116086857Y-17788000D01*
X116335696Y-17738503D01*
X116570097Y-17641411D01*
X116781052Y-17500455D01*
X116960455Y-17321052D01*
X117101411Y-17110097D01*
X117198503Y-16875696D01*
X117230000Y-16717349D01*
X117261497Y-16875696D01*
X117358589Y-17110097D01*
X117499545Y-17321052D01*
X117678948Y-17500455D01*
X117889903Y-17641411D01*
X118124304Y-17738503D01*
X118373143Y-17788000D01*
X118626857Y-17788000D01*
X118875696Y-17738503D01*
X119110097Y-17641411D01*
X119321052Y-17500455D01*
X119500455Y-17321052D01*
X119641411Y-17110097D01*
X119645593Y-17100000D01*
X133009155Y-17100000D01*
X133012000Y-17433000D01*
X133159000Y-17580000D01*
X134080000Y-17580000D01*
X134080000Y-16659000D01*
X134920000Y-16659000D01*
X134920000Y-17580000D01*
X135841000Y-17580000D01*
X135988000Y-17433000D01*
X135990845Y-17100000D01*
X135979492Y-16984732D01*
X135945870Y-16873893D01*
X135945470Y-16873143D01*
X148212000Y-16873143D01*
X148212000Y-17126857D01*
X148261497Y-17375696D01*
X148358589Y-17610097D01*
X148499545Y-17821052D01*
X148678948Y-18000455D01*
X148889903Y-18141411D01*
X149124304Y-18238503D01*
X149373143Y-18288000D01*
X149626857Y-18288000D01*
X149875696Y-18238503D01*
X150110097Y-18141411D01*
X150321052Y-18000455D01*
X150500455Y-17821052D01*
X150641411Y-17610097D01*
X150738503Y-17375696D01*
X150770000Y-17217349D01*
X150801497Y-17375696D01*
X150898589Y-17610097D01*
X151039545Y-17821052D01*
X151218948Y-18000455D01*
X151429903Y-18141411D01*
X151664304Y-18238503D01*
X151913143Y-18288000D01*
X152166857Y-18288000D01*
X152415696Y-18238503D01*
X152650097Y-18141411D01*
X152861052Y-18000455D01*
X153040455Y-17821052D01*
X153181411Y-17610097D01*
X153278503Y-17375696D01*
X153328000Y-17126857D01*
X153328000Y-16873143D01*
X153278503Y-16624304D01*
X153181411Y-16389903D01*
X153040455Y-16178948D01*
X152861052Y-15999545D01*
X152650097Y-15858589D01*
X152415696Y-15761497D01*
X152166857Y-15712000D01*
X151913143Y-15712000D01*
X151664304Y-15761497D01*
X151429903Y-15858589D01*
X151218948Y-15999545D01*
X151039545Y-16178948D01*
X150898589Y-16389903D01*
X150801497Y-16624304D01*
X150770000Y-16782651D01*
X150738503Y-16624304D01*
X150641411Y-16389903D01*
X150500455Y-16178948D01*
X150321052Y-15999545D01*
X150110097Y-15858589D01*
X149875696Y-15761497D01*
X149626857Y-15712000D01*
X149373143Y-15712000D01*
X149124304Y-15761497D01*
X148889903Y-15858589D01*
X148678948Y-15999545D01*
X148499545Y-16178948D01*
X148358589Y-16389903D01*
X148261497Y-16624304D01*
X148212000Y-16873143D01*
X135945470Y-16873143D01*
X135891270Y-16771744D01*
X135817791Y-16682209D01*
X135728256Y-16608730D01*
X135626107Y-16554130D01*
X135515268Y-16520508D01*
X135400000Y-16509155D01*
X135067000Y-16512000D01*
X134920000Y-16659000D01*
X134080000Y-16659000D01*
X133933000Y-16512000D01*
X133600000Y-16509155D01*
X133484732Y-16520508D01*
X133373893Y-16554130D01*
X133271744Y-16608730D01*
X133182209Y-16682209D01*
X133108730Y-16771744D01*
X133054130Y-16873893D01*
X133020508Y-16984732D01*
X133009155Y-17100000D01*
X119645593Y-17100000D01*
X119738503Y-16875696D01*
X119788000Y-16626857D01*
X119788000Y-16373143D01*
X119738503Y-16124304D01*
X119641411Y-15889903D01*
X119500455Y-15678948D01*
X119321052Y-15499545D01*
X119110097Y-15358589D01*
X118875696Y-15261497D01*
X118626857Y-15212000D01*
X118373143Y-15212000D01*
X118124304Y-15261497D01*
X117889903Y-15358589D01*
X117678948Y-15499545D01*
X117499545Y-15678948D01*
X117358589Y-15889903D01*
X117261497Y-16124304D01*
X117230000Y-16282651D01*
X117198503Y-16124304D01*
X117101411Y-15889903D01*
X116960455Y-15678948D01*
X116781052Y-15499545D01*
X116570097Y-15358589D01*
X116335696Y-15261497D01*
X116086857Y-15212000D01*
X115833143Y-15212000D01*
X115584304Y-15261497D01*
X115349903Y-15358589D01*
X115138948Y-15499545D01*
X114959545Y-15678948D01*
X114818589Y-15889903D01*
X114721497Y-16124304D01*
X114672000Y-16373143D01*
X108288000Y-16373143D01*
X108288000Y-15038539D01*
X108314789Y-14765323D01*
X108382944Y-14539582D01*
X108493647Y-14331381D01*
X108642683Y-14148646D01*
X108824374Y-13998337D01*
X109031794Y-13886186D01*
X109257053Y-13816457D01*
X109527799Y-13788000D01*
X158461461Y-13788000D01*
X158734677Y-13814789D01*
%TA.AperFunction,Conductor*%
D16*
G36*
X158734677Y-13814789D02*
G01*
X158960418Y-13882944D01*
X159168619Y-13993647D01*
X159351354Y-14142683D01*
X159501663Y-14324374D01*
X159613814Y-14531794D01*
X159683543Y-14757053D01*
X159712000Y-15027799D01*
X159712001Y-29961451D01*
X159685211Y-30234678D01*
X159617055Y-30460420D01*
X159506353Y-30668620D01*
X159357317Y-30851355D01*
X159175626Y-31001662D01*
X158968206Y-31113814D01*
X158742947Y-31183543D01*
X158472201Y-31212000D01*
X144961295Y-31212000D01*
X144926992Y-31215378D01*
X144914618Y-31215292D01*
X144903668Y-31216366D01*
X144515475Y-31257167D01*
X144445482Y-31271535D01*
X144375359Y-31284911D01*
X144364828Y-31288090D01*
X144364822Y-31288092D01*
X143991951Y-31403515D01*
X143926126Y-31431185D01*
X143859892Y-31457945D01*
X143850182Y-31463109D01*
X143850177Y-31463111D01*
X143850173Y-31463114D01*
X143506823Y-31648762D01*
X143447597Y-31688710D01*
X143387849Y-31727808D01*
X143379332Y-31734754D01*
X143379324Y-31734760D01*
X143379317Y-31734767D01*
X143078568Y-31983568D01*
X143028209Y-32034280D01*
X142977216Y-32084216D01*
X142970208Y-32092687D01*
X142970201Y-32092694D01*
X142970196Y-32092702D01*
X142723502Y-32395178D01*
X142683953Y-32454703D01*
X142643629Y-32513595D01*
X142638400Y-32523265D01*
X142638395Y-32523273D01*
X142638395Y-32523274D01*
X142455146Y-32867914D01*
X142427911Y-32933990D01*
X142399794Y-32999593D01*
X142396542Y-33010095D01*
X142396540Y-33010101D01*
X142396540Y-33010103D01*
X142283722Y-33383774D01*
X142269842Y-33453871D01*
X142255001Y-33523693D01*
X142253852Y-33534626D01*
X142253850Y-33534636D01*
X142253850Y-33534645D01*
X142215761Y-33923104D01*
X142212000Y-33961296D01*
X142212001Y-39961451D01*
X142185211Y-40234678D01*
X142117055Y-40460420D01*
X142006353Y-40668620D01*
X141857317Y-40851355D01*
X141675626Y-41001662D01*
X141468206Y-41113814D01*
X141242947Y-41183543D01*
X140972201Y-41212000D01*
X128038539Y-41212000D01*
X127765322Y-41185211D01*
X127539580Y-41117055D01*
X127331380Y-41006353D01*
X127148645Y-40857317D01*
X126998338Y-40675626D01*
X126886186Y-40468206D01*
X126816457Y-40242947D01*
X126788000Y-39972201D01*
X126788000Y-38400000D01*
X132905526Y-38400000D01*
X132931360Y-38662294D01*
X133007868Y-38914508D01*
X133132111Y-39146950D01*
X133299313Y-39350687D01*
X133503050Y-39517889D01*
X133735492Y-39642132D01*
X133987706Y-39718640D01*
X134184269Y-39738000D01*
X134815731Y-39738000D01*
X135012294Y-39718640D01*
X135264508Y-39642132D01*
X135496950Y-39517889D01*
X135700687Y-39350687D01*
X135867889Y-39146950D01*
X135992132Y-38914508D01*
X136068640Y-38662294D01*
X136094474Y-38400000D01*
X136068640Y-38137706D01*
X135992132Y-37885492D01*
X135867889Y-37653050D01*
X135700687Y-37449313D01*
X135496950Y-37282111D01*
X135264508Y-37157868D01*
X135012294Y-37081360D01*
X134815731Y-37062000D01*
X134184269Y-37062000D01*
X133987706Y-37081360D01*
X133735492Y-37157868D01*
X133503050Y-37282111D01*
X133299313Y-37449313D01*
X133132111Y-37653050D01*
X133007868Y-37885492D01*
X132931360Y-38137706D01*
X132905526Y-38400000D01*
X126788000Y-38400000D01*
X126788000Y-33961295D01*
X126784622Y-33926992D01*
X126784708Y-33914618D01*
X126783634Y-33903668D01*
X126777321Y-33843596D01*
X132912000Y-33843596D01*
X132912000Y-34156404D01*
X132973026Y-34463203D01*
X133092732Y-34752200D01*
X133266520Y-35012291D01*
X133487709Y-35233480D01*
X133747800Y-35407268D01*
X134036797Y-35526974D01*
X134343596Y-35588000D01*
X134656404Y-35588000D01*
X134963203Y-35526974D01*
X135252200Y-35407268D01*
X135512291Y-35233480D01*
X135733480Y-35012291D01*
X135907268Y-34752200D01*
X136026974Y-34463203D01*
X136088000Y-34156404D01*
X136088000Y-33843596D01*
X136026974Y-33536797D01*
X135907268Y-33247800D01*
X135733480Y-32987709D01*
X135512291Y-32766520D01*
X135252200Y-32592732D01*
X134963203Y-32473026D01*
X134656404Y-32412000D01*
X134343596Y-32412000D01*
X134036797Y-32473026D01*
X133747800Y-32592732D01*
X133487709Y-32766520D01*
X133266520Y-32987709D01*
X133092732Y-33247800D01*
X132973026Y-33536797D01*
X132912000Y-33843596D01*
X126777321Y-33843596D01*
X126742833Y-33515475D01*
X126728465Y-33445482D01*
X126715089Y-33375359D01*
X126711909Y-33364826D01*
X126596485Y-32991951D01*
X126568815Y-32926126D01*
X126542055Y-32859892D01*
X126536889Y-32850178D01*
X126536889Y-32850177D01*
X126536886Y-32850173D01*
X126351238Y-32506823D01*
X126311290Y-32447597D01*
X126272192Y-32387849D01*
X126265246Y-32379332D01*
X126265240Y-32379324D01*
X126265233Y-32379317D01*
X126016432Y-32078568D01*
X125965720Y-32028209D01*
X125915784Y-31977216D01*
X125907313Y-31970208D01*
X125907306Y-31970201D01*
X125907298Y-31970196D01*
X125604822Y-31723502D01*
X125545297Y-31683953D01*
X125486405Y-31643629D01*
X125476735Y-31638400D01*
X125476727Y-31638395D01*
X125476719Y-31638392D01*
X125132086Y-31455146D01*
X125066010Y-31427911D01*
X125000407Y-31399794D01*
X124989905Y-31396542D01*
X124989899Y-31396540D01*
X124989893Y-31396539D01*
X124616226Y-31283722D01*
X124546129Y-31269842D01*
X124476307Y-31255001D01*
X124465374Y-31253852D01*
X124465364Y-31253850D01*
X124465355Y-31253850D01*
X124076896Y-31215761D01*
X124076892Y-31215761D01*
X124038705Y-31212000D01*
X109538539Y-31212000D01*
X109265322Y-31185211D01*
X109039580Y-31117055D01*
X108831380Y-31006353D01*
X108648645Y-30857317D01*
X108498338Y-30675626D01*
X108386186Y-30468206D01*
X108316457Y-30242947D01*
X108288000Y-29972201D01*
X108288000Y-25373143D01*
X114672000Y-25373143D01*
X114672000Y-25626857D01*
X114721497Y-25875696D01*
X114818589Y-26110097D01*
X114959545Y-26321052D01*
X115138948Y-26500455D01*
X115349903Y-26641411D01*
X115584304Y-26738503D01*
X115833143Y-26788000D01*
X116086857Y-26788000D01*
X116335696Y-26738503D01*
X116570097Y-26641411D01*
X116781052Y-26500455D01*
X116960455Y-26321052D01*
X117101411Y-26110097D01*
X117198503Y-25875696D01*
X117230000Y-25717349D01*
X117261497Y-25875696D01*
X117358589Y-26110097D01*
X117499545Y-26321052D01*
X117678948Y-26500455D01*
X117889903Y-26641411D01*
X118124304Y-26738503D01*
X118373143Y-26788000D01*
X118626857Y-26788000D01*
X118875696Y-26738503D01*
X119110097Y-26641411D01*
X119321052Y-26500455D01*
X119448364Y-26373143D01*
X148212000Y-26373143D01*
X148212000Y-26626857D01*
X148261497Y-26875696D01*
X148358589Y-27110097D01*
X148499545Y-27321052D01*
X148678948Y-27500455D01*
X148889903Y-27641411D01*
X149124304Y-27738503D01*
X149373143Y-27788000D01*
X149626857Y-27788000D01*
X149875696Y-27738503D01*
X150110097Y-27641411D01*
X150321052Y-27500455D01*
X150500455Y-27321052D01*
X150641411Y-27110097D01*
X150738503Y-26875696D01*
X150770000Y-26717349D01*
X150801497Y-26875696D01*
X150898589Y-27110097D01*
X151039545Y-27321052D01*
X151218948Y-27500455D01*
X151429903Y-27641411D01*
X151664304Y-27738503D01*
X151913143Y-27788000D01*
X152166857Y-27788000D01*
X152415696Y-27738503D01*
X152650097Y-27641411D01*
X152861052Y-27500455D01*
X153040455Y-27321052D01*
X153181411Y-27110097D01*
X153278503Y-26875696D01*
X153328000Y-26626857D01*
X153328000Y-26373143D01*
X153278503Y-26124304D01*
X153181411Y-25889903D01*
X153040455Y-25678948D01*
X152861052Y-25499545D01*
X152650097Y-25358589D01*
X152415696Y-25261497D01*
X152166857Y-25212000D01*
X151913143Y-25212000D01*
X151664304Y-25261497D01*
X151429903Y-25358589D01*
X151218948Y-25499545D01*
X151039545Y-25678948D01*
X150898589Y-25889903D01*
X150801497Y-26124304D01*
X150770000Y-26282651D01*
X150738503Y-26124304D01*
X150641411Y-25889903D01*
X150500455Y-25678948D01*
X150321052Y-25499545D01*
X150110097Y-25358589D01*
X149875696Y-25261497D01*
X149626857Y-25212000D01*
X149373143Y-25212000D01*
X149124304Y-25261497D01*
X148889903Y-25358589D01*
X148678948Y-25499545D01*
X148499545Y-25678948D01*
X148358589Y-25889903D01*
X148261497Y-26124304D01*
X148212000Y-26373143D01*
X119448364Y-26373143D01*
X119500455Y-26321052D01*
X119641411Y-26110097D01*
X119738503Y-25875696D01*
X119788000Y-25626857D01*
X119788000Y-25373143D01*
X119738503Y-25124304D01*
X119641411Y-24889903D01*
X119500455Y-24678948D01*
X119321052Y-24499545D01*
X119110097Y-24358589D01*
X118875696Y-24261497D01*
X118626857Y-24212000D01*
X118373143Y-24212000D01*
X118124304Y-24261497D01*
X117889903Y-24358589D01*
X117678948Y-24499545D01*
X117499545Y-24678948D01*
X117358589Y-24889903D01*
X117261497Y-25124304D01*
X117230000Y-25282651D01*
X117198503Y-25124304D01*
X117101411Y-24889903D01*
X116960455Y-24678948D01*
X116781052Y-24499545D01*
X116570097Y-24358589D01*
X116335696Y-24261497D01*
X116086857Y-24212000D01*
X115833143Y-24212000D01*
X115584304Y-24261497D01*
X115349903Y-24358589D01*
X115138948Y-24499545D01*
X114959545Y-24678948D01*
X114818589Y-24889903D01*
X114721497Y-25124304D01*
X114672000Y-25373143D01*
X108288000Y-25373143D01*
X108288000Y-23169976D01*
X108707320Y-23169976D01*
X108855061Y-23410061D01*
X109046801Y-23616710D01*
X109275172Y-23781981D01*
X109370027Y-23832663D01*
X109580000Y-23760771D01*
X109580000Y-22960000D01*
X108771685Y-22960000D01*
X108707320Y-23169976D01*
X108288000Y-23169976D01*
X108288000Y-20629976D01*
X108707320Y-20629976D01*
X108855061Y-20870061D01*
X109046801Y-21076710D01*
X109275172Y-21241981D01*
X109327612Y-21270000D01*
X109275172Y-21298019D01*
X109046801Y-21463290D01*
X108855061Y-21669939D01*
X108707320Y-21910024D01*
X108771685Y-22120000D01*
X109580000Y-22120000D01*
X109580000Y-21319229D01*
X109436218Y-21270000D01*
X109580000Y-21220771D01*
X109580000Y-20420000D01*
X108771685Y-20420000D01*
X108707320Y-20629976D01*
X108288000Y-20629976D01*
X108288000Y-19370024D01*
X108707320Y-19370024D01*
X108771685Y-19580000D01*
X109580000Y-19580000D01*
X109580000Y-18779229D01*
X110420000Y-18779229D01*
X110420000Y-19580000D01*
X110440000Y-19580000D01*
X110440000Y-20420000D01*
X110420000Y-20420000D01*
X110420000Y-21220771D01*
X110563782Y-21270000D01*
X110420000Y-21319229D01*
X110420000Y-22120000D01*
X110440000Y-22120000D01*
X110440000Y-22960000D01*
X110420000Y-22960000D01*
X110420000Y-23760771D01*
X110629973Y-23832663D01*
X110724828Y-23781981D01*
X110953199Y-23616710D01*
X111105335Y-23452745D01*
X111110508Y-23505268D01*
X111144130Y-23616107D01*
X111198730Y-23718256D01*
X111272209Y-23807791D01*
X111361744Y-23881270D01*
X111463893Y-23935870D01*
X111574732Y-23969492D01*
X111690000Y-23980845D01*
X113390000Y-23980845D01*
X113505268Y-23969492D01*
X113616107Y-23935870D01*
X113718256Y-23881270D01*
X113807791Y-23807791D01*
X113881270Y-23718256D01*
X113935870Y-23616107D01*
X113969492Y-23505268D01*
X113980845Y-23390000D01*
X113980845Y-22373143D01*
X114672000Y-22373143D01*
X114672000Y-22626857D01*
X114721497Y-22875696D01*
X114818589Y-23110097D01*
X114959545Y-23321052D01*
X115138948Y-23500455D01*
X115349903Y-23641411D01*
X115584304Y-23738503D01*
X115833143Y-23788000D01*
X116086857Y-23788000D01*
X116335696Y-23738503D01*
X116570097Y-23641411D01*
X116781052Y-23500455D01*
X116960455Y-23321052D01*
X117101411Y-23110097D01*
X117198503Y-22875696D01*
X117230000Y-22717349D01*
X117261497Y-22875696D01*
X117358589Y-23110097D01*
X117499545Y-23321052D01*
X117678948Y-23500455D01*
X117889903Y-23641411D01*
X118124304Y-23738503D01*
X118373143Y-23788000D01*
X118626857Y-23788000D01*
X118875696Y-23738503D01*
X119110097Y-23641411D01*
X119321052Y-23500455D01*
X119448364Y-23373143D01*
X148212000Y-23373143D01*
X148212000Y-23626857D01*
X148261497Y-23875696D01*
X148358589Y-24110097D01*
X148499545Y-24321052D01*
X148678948Y-24500455D01*
X148889903Y-24641411D01*
X149124304Y-24738503D01*
X149373143Y-24788000D01*
X149626857Y-24788000D01*
X149875696Y-24738503D01*
X150110097Y-24641411D01*
X150321052Y-24500455D01*
X150500455Y-24321052D01*
X150641411Y-24110097D01*
X150738503Y-23875696D01*
X150770000Y-23717349D01*
X150801497Y-23875696D01*
X150898589Y-24110097D01*
X151039545Y-24321052D01*
X151218948Y-24500455D01*
X151429903Y-24641411D01*
X151664304Y-24738503D01*
X151913143Y-24788000D01*
X152166857Y-24788000D01*
X152415696Y-24738503D01*
X152650097Y-24641411D01*
X152861052Y-24500455D01*
X153040455Y-24321052D01*
X153181411Y-24110097D01*
X153278503Y-23875696D01*
X153328000Y-23626857D01*
X153328000Y-23373143D01*
X153287588Y-23169976D01*
X154207320Y-23169976D01*
X154355061Y-23410061D01*
X154546801Y-23616710D01*
X154775172Y-23781981D01*
X154870027Y-23832663D01*
X155080000Y-23760771D01*
X155080000Y-22960000D01*
X154271685Y-22960000D01*
X154207320Y-23169976D01*
X153287588Y-23169976D01*
X153278503Y-23124304D01*
X153181411Y-22889903D01*
X153040455Y-22678948D01*
X152861052Y-22499545D01*
X152650097Y-22358589D01*
X152415696Y-22261497D01*
X152166857Y-22212000D01*
X151913143Y-22212000D01*
X151664304Y-22261497D01*
X151429903Y-22358589D01*
X151218948Y-22499545D01*
X151039545Y-22678948D01*
X150898589Y-22889903D01*
X150801497Y-23124304D01*
X150770000Y-23282651D01*
X150738503Y-23124304D01*
X150641411Y-22889903D01*
X150500455Y-22678948D01*
X150321052Y-22499545D01*
X150110097Y-22358589D01*
X149875696Y-22261497D01*
X149626857Y-22212000D01*
X149373143Y-22212000D01*
X149124304Y-22261497D01*
X148889903Y-22358589D01*
X148678948Y-22499545D01*
X148499545Y-22678948D01*
X148358589Y-22889903D01*
X148261497Y-23124304D01*
X148212000Y-23373143D01*
X119448364Y-23373143D01*
X119500455Y-23321052D01*
X119641411Y-23110097D01*
X119738503Y-22875696D01*
X119788000Y-22626857D01*
X119788000Y-22373143D01*
X119738503Y-22124304D01*
X119641411Y-21889903D01*
X119500455Y-21678948D01*
X119321052Y-21499545D01*
X119110097Y-21358589D01*
X118875696Y-21261497D01*
X118626857Y-21212000D01*
X118373143Y-21212000D01*
X118124304Y-21261497D01*
X117889903Y-21358589D01*
X117678948Y-21499545D01*
X117499545Y-21678948D01*
X117358589Y-21889903D01*
X117261497Y-22124304D01*
X117230000Y-22282651D01*
X117198503Y-22124304D01*
X117101411Y-21889903D01*
X116960455Y-21678948D01*
X116781052Y-21499545D01*
X116570097Y-21358589D01*
X116335696Y-21261497D01*
X116086857Y-21212000D01*
X115833143Y-21212000D01*
X115584304Y-21261497D01*
X115349903Y-21358589D01*
X115138948Y-21499545D01*
X114959545Y-21678948D01*
X114818589Y-21889903D01*
X114721497Y-22124304D01*
X114672000Y-22373143D01*
X113980845Y-22373143D01*
X113980845Y-21690000D01*
X113969492Y-21574732D01*
X113935870Y-21463893D01*
X113881270Y-21361744D01*
X113807791Y-21272209D01*
X113718256Y-21198730D01*
X113616107Y-21144130D01*
X113505268Y-21110508D01*
X113466910Y-21106730D01*
X113656968Y-20916672D01*
X113814339Y-20681148D01*
X113922739Y-20419449D01*
X113978000Y-20141631D01*
X113978000Y-19858369D01*
X113922739Y-19580551D01*
X113836828Y-19373143D01*
X114672000Y-19373143D01*
X114672000Y-19626857D01*
X114721497Y-19875696D01*
X114818589Y-20110097D01*
X114959545Y-20321052D01*
X115138948Y-20500455D01*
X115349903Y-20641411D01*
X115584304Y-20738503D01*
X115833143Y-20788000D01*
X116086857Y-20788000D01*
X116335696Y-20738503D01*
X116570097Y-20641411D01*
X116781052Y-20500455D01*
X116960455Y-20321052D01*
X117101411Y-20110097D01*
X117198503Y-19875696D01*
X117230000Y-19717349D01*
X117261497Y-19875696D01*
X117358589Y-20110097D01*
X117499545Y-20321052D01*
X117678948Y-20500455D01*
X117889903Y-20641411D01*
X118124304Y-20738503D01*
X118373143Y-20788000D01*
X118626857Y-20788000D01*
X118875696Y-20738503D01*
X119110097Y-20641411D01*
X119321052Y-20500455D01*
X119500455Y-20321052D01*
X119641411Y-20110097D01*
X119738503Y-19875696D01*
X119788000Y-19626857D01*
X119788000Y-19373143D01*
X119738503Y-19124304D01*
X119645594Y-18900000D01*
X133009155Y-18900000D01*
X133020508Y-19015268D01*
X133054130Y-19126107D01*
X133108730Y-19228256D01*
X133182209Y-19317791D01*
X133271744Y-19391270D01*
X133373893Y-19445870D01*
X133462808Y-19472842D01*
X133344195Y-19591455D01*
X133181351Y-19835168D01*
X133069183Y-20105966D01*
X133012000Y-20393445D01*
X133012000Y-20686555D01*
X133069183Y-20974034D01*
X133181351Y-21244832D01*
X133344195Y-21488545D01*
X133551455Y-21695805D01*
X133795168Y-21858649D01*
X134065966Y-21970817D01*
X134353445Y-22028000D01*
X134646555Y-22028000D01*
X134934034Y-21970817D01*
X135204832Y-21858649D01*
X135448545Y-21695805D01*
X135655805Y-21488545D01*
X135818649Y-21244832D01*
X135930817Y-20974034D01*
X135988000Y-20686555D01*
X135988000Y-20393445D01*
X135930817Y-20105966D01*
X135834379Y-19873143D01*
X148212000Y-19873143D01*
X148212000Y-20126857D01*
X148261497Y-20375696D01*
X148358589Y-20610097D01*
X148499545Y-20821052D01*
X148678948Y-21000455D01*
X148889903Y-21141411D01*
X149124304Y-21238503D01*
X149373143Y-21288000D01*
X149626857Y-21288000D01*
X149875696Y-21238503D01*
X150110097Y-21141411D01*
X150321052Y-21000455D01*
X150500455Y-20821052D01*
X150641411Y-20610097D01*
X150738503Y-20375696D01*
X150770000Y-20217349D01*
X150801497Y-20375696D01*
X150898589Y-20610097D01*
X151039545Y-20821052D01*
X151218948Y-21000455D01*
X151429903Y-21141411D01*
X151664304Y-21238503D01*
X151913143Y-21288000D01*
X152166857Y-21288000D01*
X152415696Y-21238503D01*
X152650097Y-21141411D01*
X152861052Y-21000455D01*
X153040455Y-20821052D01*
X153168128Y-20629976D01*
X154207320Y-20629976D01*
X154355061Y-20870061D01*
X154546801Y-21076710D01*
X154775172Y-21241981D01*
X154827612Y-21270000D01*
X154775172Y-21298019D01*
X154546801Y-21463290D01*
X154355061Y-21669939D01*
X154207320Y-21910024D01*
X154271685Y-22120000D01*
X155080000Y-22120000D01*
X155080000Y-21319229D01*
X154936218Y-21270000D01*
X155080000Y-21220771D01*
X155080000Y-20420000D01*
X154271685Y-20420000D01*
X154207320Y-20629976D01*
X153168128Y-20629976D01*
X153181411Y-20610097D01*
X153278503Y-20375696D01*
X153328000Y-20126857D01*
X153328000Y-19873143D01*
X153278503Y-19624304D01*
X153181411Y-19389903D01*
X153168129Y-19370024D01*
X154207320Y-19370024D01*
X154271685Y-19580000D01*
X155080000Y-19580000D01*
X155080000Y-18779229D01*
X155920000Y-18779229D01*
X155920000Y-19580000D01*
X155940000Y-19580000D01*
X155940000Y-20420000D01*
X155920000Y-20420000D01*
X155920000Y-21220771D01*
X156063782Y-21270000D01*
X155920000Y-21319229D01*
X155920000Y-22120000D01*
X155940000Y-22120000D01*
X155940000Y-22960000D01*
X155920000Y-22960000D01*
X155920000Y-23760771D01*
X156129973Y-23832663D01*
X156224828Y-23781981D01*
X156453199Y-23616710D01*
X156605335Y-23452745D01*
X156610508Y-23505268D01*
X156644130Y-23616107D01*
X156698730Y-23718256D01*
X156772209Y-23807791D01*
X156861744Y-23881270D01*
X156963893Y-23935870D01*
X157074732Y-23969492D01*
X157190000Y-23980845D01*
X158890000Y-23980845D01*
X159005268Y-23969492D01*
X159116107Y-23935870D01*
X159218256Y-23881270D01*
X159307791Y-23807791D01*
X159381270Y-23718256D01*
X159435870Y-23616107D01*
X159469492Y-23505268D01*
X159480845Y-23390000D01*
X159480845Y-21690000D01*
X159469492Y-21574732D01*
X159435870Y-21463893D01*
X159381270Y-21361744D01*
X159307791Y-21272209D01*
X159218256Y-21198730D01*
X159116107Y-21144130D01*
X159005268Y-21110508D01*
X158966910Y-21106730D01*
X159156968Y-20916672D01*
X159314339Y-20681148D01*
X159422739Y-20419449D01*
X159478000Y-20141631D01*
X159478000Y-19858369D01*
X159422739Y-19580551D01*
X159314339Y-19318852D01*
X159156968Y-19083328D01*
X158956672Y-18883032D01*
X158721148Y-18725661D01*
X158459449Y-18617261D01*
X158181631Y-18562000D01*
X157898369Y-18562000D01*
X157620551Y-18617261D01*
X157358852Y-18725661D01*
X157123328Y-18883032D01*
X156923032Y-19083328D01*
X156765661Y-19318852D01*
X156763862Y-19323194D01*
X156644939Y-19129939D01*
X156453199Y-18923290D01*
X156224828Y-18758019D01*
X156129973Y-18707337D01*
X155920000Y-18779229D01*
X155080000Y-18779229D01*
X154870027Y-18707337D01*
X154775172Y-18758019D01*
X154546801Y-18923290D01*
X154355061Y-19129939D01*
X154207320Y-19370024D01*
X153168129Y-19370024D01*
X153040455Y-19178948D01*
X152861052Y-18999545D01*
X152650097Y-18858589D01*
X152415696Y-18761497D01*
X152166857Y-18712000D01*
X151913143Y-18712000D01*
X151664304Y-18761497D01*
X151429903Y-18858589D01*
X151218948Y-18999545D01*
X151039545Y-19178948D01*
X150898589Y-19389903D01*
X150801497Y-19624304D01*
X150770000Y-19782651D01*
X150738503Y-19624304D01*
X150641411Y-19389903D01*
X150500455Y-19178948D01*
X150321052Y-18999545D01*
X150110097Y-18858589D01*
X149875696Y-18761497D01*
X149626857Y-18712000D01*
X149373143Y-18712000D01*
X149124304Y-18761497D01*
X148889903Y-18858589D01*
X148678948Y-18999545D01*
X148499545Y-19178948D01*
X148358589Y-19389903D01*
X148261497Y-19624304D01*
X148212000Y-19873143D01*
X135834379Y-19873143D01*
X135818649Y-19835168D01*
X135655805Y-19591455D01*
X135537192Y-19472842D01*
X135626107Y-19445870D01*
X135728256Y-19391270D01*
X135817791Y-19317791D01*
X135891270Y-19228256D01*
X135945870Y-19126107D01*
X135979492Y-19015268D01*
X135990845Y-18900000D01*
X135988000Y-18567000D01*
X135841000Y-18420000D01*
X134920000Y-18420000D01*
X134920000Y-18440000D01*
X134080000Y-18440000D01*
X134080000Y-18420000D01*
X133159000Y-18420000D01*
X133012000Y-18567000D01*
X133009155Y-18900000D01*
X119645594Y-18900000D01*
X119641411Y-18889903D01*
X119500455Y-18678948D01*
X119321052Y-18499545D01*
X119110097Y-18358589D01*
X118875696Y-18261497D01*
X118626857Y-18212000D01*
X118373143Y-18212000D01*
X118124304Y-18261497D01*
X117889903Y-18358589D01*
X117678948Y-18499545D01*
X117499545Y-18678948D01*
X117358589Y-18889903D01*
X117261497Y-19124304D01*
X117230000Y-19282651D01*
X117198503Y-19124304D01*
X117101411Y-18889903D01*
X116960455Y-18678948D01*
X116781052Y-18499545D01*
X116570097Y-18358589D01*
X116335696Y-18261497D01*
X116086857Y-18212000D01*
X115833143Y-18212000D01*
X115584304Y-18261497D01*
X115349903Y-18358589D01*
X115138948Y-18499545D01*
X114959545Y-18678948D01*
X114818589Y-18889903D01*
X114721497Y-19124304D01*
X114672000Y-19373143D01*
X113836828Y-19373143D01*
X113814339Y-19318852D01*
X113656968Y-19083328D01*
X113456672Y-18883032D01*
X113221148Y-18725661D01*
X112959449Y-18617261D01*
X112681631Y-18562000D01*
X112398369Y-18562000D01*
X112120551Y-18617261D01*
X111858852Y-18725661D01*
X111623328Y-18883032D01*
X111423032Y-19083328D01*
X111265661Y-19318852D01*
X111263862Y-19323194D01*
X111144939Y-19129939D01*
X110953199Y-18923290D01*
X110724828Y-18758019D01*
X110629973Y-18707337D01*
X110420000Y-18779229D01*
X109580000Y-18779229D01*
X109370027Y-18707337D01*
X109275172Y-18758019D01*
X109046801Y-18923290D01*
X108855061Y-19129939D01*
X108707320Y-19370024D01*
X108288000Y-19370024D01*
X108288000Y-16373143D01*
X114672000Y-16373143D01*
X114672000Y-16626857D01*
X114721497Y-16875696D01*
X114818589Y-17110097D01*
X114959545Y-17321052D01*
X115138948Y-17500455D01*
X115349903Y-17641411D01*
X115584304Y-17738503D01*
X115833143Y-17788000D01*
X116086857Y-17788000D01*
X116335696Y-17738503D01*
X116570097Y-17641411D01*
X116781052Y-17500455D01*
X116960455Y-17321052D01*
X117101411Y-17110097D01*
X117198503Y-16875696D01*
X117230000Y-16717349D01*
X117261497Y-16875696D01*
X117358589Y-17110097D01*
X117499545Y-17321052D01*
X117678948Y-17500455D01*
X117889903Y-17641411D01*
X118124304Y-17738503D01*
X118373143Y-17788000D01*
X118626857Y-17788000D01*
X118875696Y-17738503D01*
X119110097Y-17641411D01*
X119321052Y-17500455D01*
X119500455Y-17321052D01*
X119641411Y-17110097D01*
X119645593Y-17100000D01*
X133009155Y-17100000D01*
X133012000Y-17433000D01*
X133159000Y-17580000D01*
X134080000Y-17580000D01*
X134080000Y-16659000D01*
X134920000Y-16659000D01*
X134920000Y-17580000D01*
X135841000Y-17580000D01*
X135988000Y-17433000D01*
X135990845Y-17100000D01*
X135979492Y-16984732D01*
X135945870Y-16873893D01*
X135945470Y-16873143D01*
X148212000Y-16873143D01*
X148212000Y-17126857D01*
X148261497Y-17375696D01*
X148358589Y-17610097D01*
X148499545Y-17821052D01*
X148678948Y-18000455D01*
X148889903Y-18141411D01*
X149124304Y-18238503D01*
X149373143Y-18288000D01*
X149626857Y-18288000D01*
X149875696Y-18238503D01*
X150110097Y-18141411D01*
X150321052Y-18000455D01*
X150500455Y-17821052D01*
X150641411Y-17610097D01*
X150738503Y-17375696D01*
X150770000Y-17217349D01*
X150801497Y-17375696D01*
X150898589Y-17610097D01*
X151039545Y-17821052D01*
X151218948Y-18000455D01*
X151429903Y-18141411D01*
X151664304Y-18238503D01*
X151913143Y-18288000D01*
X152166857Y-18288000D01*
X152415696Y-18238503D01*
X152650097Y-18141411D01*
X152861052Y-18000455D01*
X153040455Y-17821052D01*
X153181411Y-17610097D01*
X153278503Y-17375696D01*
X153328000Y-17126857D01*
X153328000Y-16873143D01*
X153278503Y-16624304D01*
X153181411Y-16389903D01*
X153040455Y-16178948D01*
X152861052Y-15999545D01*
X152650097Y-15858589D01*
X152415696Y-15761497D01*
X152166857Y-15712000D01*
X151913143Y-15712000D01*
X151664304Y-15761497D01*
X151429903Y-15858589D01*
X151218948Y-15999545D01*
X151039545Y-16178948D01*
X150898589Y-16389903D01*
X150801497Y-16624304D01*
X150770000Y-16782651D01*
X150738503Y-16624304D01*
X150641411Y-16389903D01*
X150500455Y-16178948D01*
X150321052Y-15999545D01*
X150110097Y-15858589D01*
X149875696Y-15761497D01*
X149626857Y-15712000D01*
X149373143Y-15712000D01*
X149124304Y-15761497D01*
X148889903Y-15858589D01*
X148678948Y-15999545D01*
X148499545Y-16178948D01*
X148358589Y-16389903D01*
X148261497Y-16624304D01*
X148212000Y-16873143D01*
X135945470Y-16873143D01*
X135891270Y-16771744D01*
X135817791Y-16682209D01*
X135728256Y-16608730D01*
X135626107Y-16554130D01*
X135515268Y-16520508D01*
X135400000Y-16509155D01*
X135067000Y-16512000D01*
X134920000Y-16659000D01*
X134080000Y-16659000D01*
X133933000Y-16512000D01*
X133600000Y-16509155D01*
X133484732Y-16520508D01*
X133373893Y-16554130D01*
X133271744Y-16608730D01*
X133182209Y-16682209D01*
X133108730Y-16771744D01*
X133054130Y-16873893D01*
X133020508Y-16984732D01*
X133009155Y-17100000D01*
X119645593Y-17100000D01*
X119738503Y-16875696D01*
X119788000Y-16626857D01*
X119788000Y-16373143D01*
X119738503Y-16124304D01*
X119641411Y-15889903D01*
X119500455Y-15678948D01*
X119321052Y-15499545D01*
X119110097Y-15358589D01*
X118875696Y-15261497D01*
X118626857Y-15212000D01*
X118373143Y-15212000D01*
X118124304Y-15261497D01*
X117889903Y-15358589D01*
X117678948Y-15499545D01*
X117499545Y-15678948D01*
X117358589Y-15889903D01*
X117261497Y-16124304D01*
X117230000Y-16282651D01*
X117198503Y-16124304D01*
X117101411Y-15889903D01*
X116960455Y-15678948D01*
X116781052Y-15499545D01*
X116570097Y-15358589D01*
X116335696Y-15261497D01*
X116086857Y-15212000D01*
X115833143Y-15212000D01*
X115584304Y-15261497D01*
X115349903Y-15358589D01*
X115138948Y-15499545D01*
X114959545Y-15678948D01*
X114818589Y-15889903D01*
X114721497Y-16124304D01*
X114672000Y-16373143D01*
X108288000Y-16373143D01*
X108288000Y-15038539D01*
X108314789Y-14765323D01*
X108382944Y-14539582D01*
X108493647Y-14331381D01*
X108642683Y-14148646D01*
X108824374Y-13998337D01*
X109031794Y-13886186D01*
X109257053Y-13816457D01*
X109527799Y-13788000D01*
X158461461Y-13788000D01*
X158734677Y-13814789D01*
G37*
%TD.AperFunction*%
%TD*%
M02*
